<?xml version="1.0" encoding="utf-8" standalone="no"?>
<!DOCTYPE svg PUBLIC "-//W3C//DTD SVG 1.1//EN"
  "http://www.w3.org/Graphics/SVG/1.1/DTD/svg11.dtd">
<svg xmlns:xlink="http://www.w3.org/1999/xlink" width="460.8pt" height="345.6pt" viewBox="0 0 460.8 345.6" xmlns="http://www.w3.org/2000/svg" version="1.1">
 <metadata>
  <rdf:RDF xmlns:dc="http://purl.org/dc/elements/1.1/" xmlns:cc="http://creativecommons.org/ns#" xmlns:rdf="http://www.w3.org/1999/02/22-rdf-syntax-ns#">
   <cc:Work>
    <dc:type rdf:resource="http://purl.org/dc/dcmitype/StillImage"/>
    <dc:date>2025-10-30T15:08:57.095507</dc:date>
    <dc:format>image/svg+xml</dc:format>
    <dc:creator>
     <cc:Agent>
      <dc:title>Matplotlib v3.10.3, https://matplotlib.org/</dc:title>
     </cc:Agent>
    </dc:creator>
   </cc:Work>
  </rdf:RDF>
 </metadata>
 <defs>
  <style type="text/css">*{stroke-linejoin: round; stroke-linecap: butt}</style>
 </defs>
 <g id="figure_1">
  <g id="patch_1">
   <path d="M 0 345.6 
L 460.8 345.6 
L 460.8 0 
L 0 0 
z
" style="fill: #ffffff"/>
  </g>
  <g id="axes_1">
   <g id="patch_2">
    <path d="M 57.6 307.584 
L 414.72 307.584 
L 414.72 41.472 
L 57.6 41.472 
z
" style="fill: #ffffff"/>
   </g>
   <g id="matplotlib.axis_1">
    <g id="xtick_1">
     <g id="line2d_1">
      <defs>
       <path id="mf20cd3d9f2" d="M 0 0 
L 0 3.5 
" style="stroke: #000000; stroke-width: 0.8"/>
      </defs>
      <g>
       <use xlink:href="#mf20cd3d9f2" x="79.429924" y="307.584" style="stroke: #000000; stroke-width: 0.8"/>
      </g>
     </g>
     <g id="text_1">
      <!-- −150 -->
      <g transform="translate(65.69633 322.182437) scale(0.1 -0.1)">
       <defs>
        <path id="DejaVuSans-2212" d="M 678 2272 
L 4684 2272 
L 4684 1741 
L 678 1741 
L 678 2272 
z
" transform="scale(0.015625)"/>
        <path id="DejaVuSans-31" d="M 794 531 
L 1825 531 
L 1825 4091 
L 703 3866 
L 703 4441 
L 1819 4666 
L 2450 4666 
L 2450 531 
L 3481 531 
L 3481 0 
L 794 0 
L 794 531 
z
" transform="scale(0.015625)"/>
        <path id="DejaVuSans-35" d="M 691 4666 
L 3169 4666 
L 3169 4134 
L 1269 4134 
L 1269 2991 
Q 1406 3038 1543 3061 
Q 1681 3084 1819 3084 
Q 2600 3084 3056 2656 
Q 3513 2228 3513 1497 
Q 3513 744 3044 326 
Q 2575 -91 1722 -91 
Q 1428 -91 1123 -41 
Q 819 9 494 109 
L 494 744 
Q 775 591 1075 516 
Q 1375 441 1709 441 
Q 2250 441 2565 725 
Q 2881 1009 2881 1497 
Q 2881 1984 2565 2268 
Q 2250 2553 1709 2553 
Q 1456 2553 1204 2497 
Q 953 2441 691 2322 
L 691 4666 
z
" transform="scale(0.015625)"/>
        <path id="DejaVuSans-30" d="M 2034 4250 
Q 1547 4250 1301 3770 
Q 1056 3291 1056 2328 
Q 1056 1369 1301 889 
Q 1547 409 2034 409 
Q 2525 409 2770 889 
Q 3016 1369 3016 2328 
Q 3016 3291 2770 3770 
Q 2525 4250 2034 4250 
z
M 2034 4750 
Q 2819 4750 3233 4129 
Q 3647 3509 3647 2328 
Q 3647 1150 3233 529 
Q 2819 -91 2034 -91 
Q 1250 -91 836 529 
Q 422 1150 422 2328 
Q 422 3509 836 4129 
Q 1250 4750 2034 4750 
z
" transform="scale(0.015625)"/>
       </defs>
       <use xlink:href="#DejaVuSans-2212"/>
       <use xlink:href="#DejaVuSans-31" transform="translate(83.789062 0)"/>
       <use xlink:href="#DejaVuSans-35" transform="translate(147.412109 0)"/>
       <use xlink:href="#DejaVuSans-30" transform="translate(211.035156 0)"/>
      </g>
     </g>
    </g>
    <g id="xtick_2">
     <g id="line2d_2">
      <g>
       <use xlink:href="#mf20cd3d9f2" x="121.704853" y="307.584" style="stroke: #000000; stroke-width: 0.8"/>
      </g>
     </g>
     <g id="text_2">
      <!-- −100 -->
      <g transform="translate(107.97126 322.182437) scale(0.1 -0.1)">
       <use xlink:href="#DejaVuSans-2212"/>
       <use xlink:href="#DejaVuSans-31" transform="translate(83.789062 0)"/>
       <use xlink:href="#DejaVuSans-30" transform="translate(147.412109 0)"/>
       <use xlink:href="#DejaVuSans-30" transform="translate(211.035156 0)"/>
      </g>
     </g>
    </g>
    <g id="xtick_3">
     <g id="line2d_3">
      <g>
       <use xlink:href="#mf20cd3d9f2" x="163.979783" y="307.584" style="stroke: #000000; stroke-width: 0.8"/>
      </g>
     </g>
     <g id="text_3">
      <!-- −50 -->
      <g transform="translate(153.427439 322.182437) scale(0.1 -0.1)">
       <use xlink:href="#DejaVuSans-2212"/>
       <use xlink:href="#DejaVuSans-35" transform="translate(83.789062 0)"/>
       <use xlink:href="#DejaVuSans-30" transform="translate(147.412109 0)"/>
      </g>
     </g>
    </g>
    <g id="xtick_4">
     <g id="line2d_4">
      <g>
       <use xlink:href="#mf20cd3d9f2" x="206.254713" y="307.584" style="stroke: #000000; stroke-width: 0.8"/>
      </g>
     </g>
     <g id="text_4">
      <!-- 0 -->
      <g transform="translate(203.073463 322.182437) scale(0.1 -0.1)">
       <use xlink:href="#DejaVuSans-30"/>
      </g>
     </g>
    </g>
    <g id="xtick_5">
     <g id="line2d_5">
      <g>
       <use xlink:href="#mf20cd3d9f2" x="248.529642" y="307.584" style="stroke: #000000; stroke-width: 0.8"/>
      </g>
     </g>
     <g id="text_5">
      <!-- 50 -->
      <g transform="translate(242.167142 322.182437) scale(0.1 -0.1)">
       <use xlink:href="#DejaVuSans-35"/>
       <use xlink:href="#DejaVuSans-30" transform="translate(63.623047 0)"/>
      </g>
     </g>
    </g>
    <g id="xtick_6">
     <g id="line2d_6">
      <g>
       <use xlink:href="#mf20cd3d9f2" x="290.804572" y="307.584" style="stroke: #000000; stroke-width: 0.8"/>
      </g>
     </g>
     <g id="text_6">
      <!-- 100 -->
      <g transform="translate(281.260822 322.182437) scale(0.1 -0.1)">
       <use xlink:href="#DejaVuSans-31"/>
       <use xlink:href="#DejaVuSans-30" transform="translate(63.623047 0)"/>
       <use xlink:href="#DejaVuSans-30" transform="translate(127.246094 0)"/>
      </g>
     </g>
    </g>
    <g id="xtick_7">
     <g id="line2d_7">
      <g>
       <use xlink:href="#mf20cd3d9f2" x="333.079501" y="307.584" style="stroke: #000000; stroke-width: 0.8"/>
      </g>
     </g>
     <g id="text_7">
      <!-- 150 -->
      <g transform="translate(323.535751 322.182437) scale(0.1 -0.1)">
       <use xlink:href="#DejaVuSans-31"/>
       <use xlink:href="#DejaVuSans-35" transform="translate(63.623047 0)"/>
       <use xlink:href="#DejaVuSans-30" transform="translate(127.246094 0)"/>
      </g>
     </g>
    </g>
    <g id="xtick_8">
     <g id="line2d_8">
      <g>
       <use xlink:href="#mf20cd3d9f2" x="375.354431" y="307.584" style="stroke: #000000; stroke-width: 0.8"/>
      </g>
     </g>
     <g id="text_8">
      <!-- 200 -->
      <g transform="translate(365.810681 322.182437) scale(0.1 -0.1)">
       <defs>
        <path id="DejaVuSans-32" d="M 1228 531 
L 3431 531 
L 3431 0 
L 469 0 
L 469 531 
Q 828 903 1448 1529 
Q 2069 2156 2228 2338 
Q 2531 2678 2651 2914 
Q 2772 3150 2772 3378 
Q 2772 3750 2511 3984 
Q 2250 4219 1831 4219 
Q 1534 4219 1204 4116 
Q 875 4013 500 3803 
L 500 4441 
Q 881 4594 1212 4672 
Q 1544 4750 1819 4750 
Q 2544 4750 2975 4387 
Q 3406 4025 3406 3419 
Q 3406 3131 3298 2873 
Q 3191 2616 2906 2266 
Q 2828 2175 2409 1742 
Q 1991 1309 1228 531 
z
" transform="scale(0.015625)"/>
       </defs>
       <use xlink:href="#DejaVuSans-32"/>
       <use xlink:href="#DejaVuSans-30" transform="translate(63.623047 0)"/>
       <use xlink:href="#DejaVuSans-30" transform="translate(127.246094 0)"/>
      </g>
     </g>
    </g>
   </g>
   <g id="matplotlib.axis_2">
    <g id="ytick_1">
     <g id="line2d_9">
      <defs>
       <path id="me217f82168" d="M 0 0 
L -3.5 0 
" style="stroke: #000000; stroke-width: 0.8"/>
      </defs>
      <g>
       <use xlink:href="#me217f82168" x="57.6" y="297.23656" style="stroke: #000000; stroke-width: 0.8"/>
      </g>
     </g>
     <g id="text_9">
      <!-- −200 -->
      <g transform="translate(23.132812 301.035779) scale(0.1 -0.1)">
       <use xlink:href="#DejaVuSans-2212"/>
       <use xlink:href="#DejaVuSans-32" transform="translate(83.789062 0)"/>
       <use xlink:href="#DejaVuSans-30" transform="translate(147.412109 0)"/>
       <use xlink:href="#DejaVuSans-30" transform="translate(211.035156 0)"/>
      </g>
     </g>
    </g>
    <g id="ytick_2">
     <g id="line2d_10">
      <g>
       <use xlink:href="#me217f82168" x="57.6" y="261.983331" style="stroke: #000000; stroke-width: 0.8"/>
      </g>
     </g>
     <g id="text_10">
      <!-- 0 -->
      <g transform="translate(44.2375 265.782549) scale(0.1 -0.1)">
       <use xlink:href="#DejaVuSans-30"/>
      </g>
     </g>
    </g>
    <g id="ytick_3">
     <g id="line2d_11">
      <g>
       <use xlink:href="#me217f82168" x="57.6" y="226.730102" style="stroke: #000000; stroke-width: 0.8"/>
      </g>
     </g>
     <g id="text_11">
      <!-- 200 -->
      <g transform="translate(31.5125 230.52932) scale(0.1 -0.1)">
       <use xlink:href="#DejaVuSans-32"/>
       <use xlink:href="#DejaVuSans-30" transform="translate(63.623047 0)"/>
       <use xlink:href="#DejaVuSans-30" transform="translate(127.246094 0)"/>
      </g>
     </g>
    </g>
    <g id="ytick_4">
     <g id="line2d_12">
      <g>
       <use xlink:href="#me217f82168" x="57.6" y="191.476872" style="stroke: #000000; stroke-width: 0.8"/>
      </g>
     </g>
     <g id="text_12">
      <!-- 400 -->
      <g transform="translate(31.5125 195.276091) scale(0.1 -0.1)">
       <defs>
        <path id="DejaVuSans-34" d="M 2419 4116 
L 825 1625 
L 2419 1625 
L 2419 4116 
z
M 2253 4666 
L 3047 4666 
L 3047 1625 
L 3713 1625 
L 3713 1100 
L 3047 1100 
L 3047 0 
L 2419 0 
L 2419 1100 
L 313 1100 
L 313 1709 
L 2253 4666 
z
" transform="scale(0.015625)"/>
       </defs>
       <use xlink:href="#DejaVuSans-34"/>
       <use xlink:href="#DejaVuSans-30" transform="translate(63.623047 0)"/>
       <use xlink:href="#DejaVuSans-30" transform="translate(127.246094 0)"/>
      </g>
     </g>
    </g>
    <g id="ytick_5">
     <g id="line2d_13">
      <g>
       <use xlink:href="#me217f82168" x="57.6" y="156.223643" style="stroke: #000000; stroke-width: 0.8"/>
      </g>
     </g>
     <g id="text_13">
      <!-- 600 -->
      <g transform="translate(31.5125 160.022862) scale(0.1 -0.1)">
       <defs>
        <path id="DejaVuSans-36" d="M 2113 2584 
Q 1688 2584 1439 2293 
Q 1191 2003 1191 1497 
Q 1191 994 1439 701 
Q 1688 409 2113 409 
Q 2538 409 2786 701 
Q 3034 994 3034 1497 
Q 3034 2003 2786 2293 
Q 2538 2584 2113 2584 
z
M 3366 4563 
L 3366 3988 
Q 3128 4100 2886 4159 
Q 2644 4219 2406 4219 
Q 1781 4219 1451 3797 
Q 1122 3375 1075 2522 
Q 1259 2794 1537 2939 
Q 1816 3084 2150 3084 
Q 2853 3084 3261 2657 
Q 3669 2231 3669 1497 
Q 3669 778 3244 343 
Q 2819 -91 2113 -91 
Q 1303 -91 875 529 
Q 447 1150 447 2328 
Q 447 3434 972 4092 
Q 1497 4750 2381 4750 
Q 2619 4750 2861 4703 
Q 3103 4656 3366 4563 
z
" transform="scale(0.015625)"/>
       </defs>
       <use xlink:href="#DejaVuSans-36"/>
       <use xlink:href="#DejaVuSans-30" transform="translate(63.623047 0)"/>
       <use xlink:href="#DejaVuSans-30" transform="translate(127.246094 0)"/>
      </g>
     </g>
    </g>
    <g id="ytick_6">
     <g id="line2d_14">
      <g>
       <use xlink:href="#me217f82168" x="57.6" y="120.970414" style="stroke: #000000; stroke-width: 0.8"/>
      </g>
     </g>
     <g id="text_14">
      <!-- 800 -->
      <g transform="translate(31.5125 124.769633) scale(0.1 -0.1)">
       <defs>
        <path id="DejaVuSans-38" d="M 2034 2216 
Q 1584 2216 1326 1975 
Q 1069 1734 1069 1313 
Q 1069 891 1326 650 
Q 1584 409 2034 409 
Q 2484 409 2743 651 
Q 3003 894 3003 1313 
Q 3003 1734 2745 1975 
Q 2488 2216 2034 2216 
z
M 1403 2484 
Q 997 2584 770 2862 
Q 544 3141 544 3541 
Q 544 4100 942 4425 
Q 1341 4750 2034 4750 
Q 2731 4750 3128 4425 
Q 3525 4100 3525 3541 
Q 3525 3141 3298 2862 
Q 3072 2584 2669 2484 
Q 3125 2378 3379 2068 
Q 3634 1759 3634 1313 
Q 3634 634 3220 271 
Q 2806 -91 2034 -91 
Q 1263 -91 848 271 
Q 434 634 434 1313 
Q 434 1759 690 2068 
Q 947 2378 1403 2484 
z
M 1172 3481 
Q 1172 3119 1398 2916 
Q 1625 2713 2034 2713 
Q 2441 2713 2670 2916 
Q 2900 3119 2900 3481 
Q 2900 3844 2670 4047 
Q 2441 4250 2034 4250 
Q 1625 4250 1398 4047 
Q 1172 3844 1172 3481 
z
" transform="scale(0.015625)"/>
       </defs>
       <use xlink:href="#DejaVuSans-38"/>
       <use xlink:href="#DejaVuSans-30" transform="translate(63.623047 0)"/>
       <use xlink:href="#DejaVuSans-30" transform="translate(127.246094 0)"/>
      </g>
     </g>
    </g>
    <g id="ytick_7">
     <g id="line2d_15">
      <g>
       <use xlink:href="#me217f82168" x="57.6" y="85.717185" style="stroke: #000000; stroke-width: 0.8"/>
      </g>
     </g>
     <g id="text_15">
      <!-- 1000 -->
      <g transform="translate(25.15 89.516404) scale(0.1 -0.1)">
       <use xlink:href="#DejaVuSans-31"/>
       <use xlink:href="#DejaVuSans-30" transform="translate(63.623047 0)"/>
       <use xlink:href="#DejaVuSans-30" transform="translate(127.246094 0)"/>
       <use xlink:href="#DejaVuSans-30" transform="translate(190.869141 0)"/>
      </g>
     </g>
    </g>
    <g id="ytick_8">
     <g id="line2d_16">
      <g>
       <use xlink:href="#me217f82168" x="57.6" y="50.463956" style="stroke: #000000; stroke-width: 0.8"/>
      </g>
     </g>
     <g id="text_16">
      <!-- 1200 -->
      <g transform="translate(25.15 54.263175) scale(0.1 -0.1)">
       <use xlink:href="#DejaVuSans-31"/>
       <use xlink:href="#DejaVuSans-32" transform="translate(63.623047 0)"/>
       <use xlink:href="#DejaVuSans-30" transform="translate(127.246094 0)"/>
       <use xlink:href="#DejaVuSans-30" transform="translate(190.869141 0)"/>
      </g>
     </g>
    </g>
   </g>
   <g id="line2d_17">
    <path d="M 245.375933 260.264736 
L 245.629582 260.715977 
L 245.874777 261.223624 
L 246.119972 261.733033 
L 246.119972 262.297084 
L 246.365165 262.861136 
L 246.365165 263.481593 
L 247.109204 264.10205 
L 247.599595 264.724269 
L 247.599595 265.288321 
L 246.864009 265.739562 
L 247.109204 266.247209 
L 246.365165 266.754855 
L 246.119972 267.377075 
" clip-path="url(#p6705ffb4bd)" style="fill: none; stroke: #000000; stroke-width: 1.5; stroke-linecap: square"/>
   </g>
   <g id="line2d_18">
    <path d="M 253.949288 258.417467 
L 260.121427 258.079036 
L 265.304331 258.530277 
L 266.530308 258.755898 
L 275.061386 258.412179 
L 279.314249 258.477397 
L 280.692409 257.71769 
L 282.172032 257.266449 
L 282.417227 256.86985 
L 283.89685 256.75704 
L 286.120509 256.418609 
L 286.864545 256.080177 
L 288.834558 255.910962 
L 291.058224 255.403315 
L 293.028231 255.12129 
L 293.772273 254.670048 
L 294.507853 254.38626 
L 298.456336 253.878613 
L 300.181148 253.540182 
L 299.690764 253.314562 
L 302.159618 252.86332 
L 304.873668 252.581294 
L 310.792158 251.564239 
L 312.27178 250.943782 
L 312.026585 250.60535 
L 312.27178 250.26692 
L 313.015817 249.928489 
L 314.005055 249.702869 
L 316.558464 248.527174 
L 316.313263 248.019526 
L 318.291726 247.624691 
L 320.506941 247.39907 
L 320.506941 246.946066 
L 322.240203 246.438419 
L 323.220985 245.987178 
L 322.485405 245.592342 
L 322.730594 245.197505 
L 324.455418 244.915479 
L 324.954259 244.40607 
L 323.719826 243.898424 
L 324.700607 243.616399 
L 326.433882 243.277967 
L 326.188693 242.883131 
L 327.169461 242.5447 
L 328.902736 242.488295 
L 330.128706 242.262675 
L 330.382359 241.809671 
L 331.616792 241.471239 
L 281.537908 258.420992 
L 289.426411 258.477397 
L 289.426411 258.703018 
L 291.404875 259.156022 
L 291.65007 259.494453 
L 292.884497 259.720073 
L 296.34259 260.002099 
L 297.323365 259.832884 
L 296.832974 260.22772 
L 299.792219 260.34053 
L 301.026647 260.509746 
L 300.28261 260.791772 
L 300.037415 261.130203 
L 303.250312 261.808827 
L 302.751464 262.316474 
L 303.250312 262.82412 
L 304.231087 264.008629 
L 304.97513 264.461633 
L 308.923607 264.800064 
L 310.403229 264.800064 
L 310.403229 265.025684 
L 311.637656 265.138495 
L 286.712362 258.026156 
L 290.660838 257.85694 
L 299.547024 258.308181 
L 302.26108 258.590207 
L 303.985892 258.985044 
L 306.699948 258.928638 
L 309.659193 259.099616 
L 311.637656 259.945694 
L 317.310958 260.396935 
L 321.014233 260.791772 
L 323.973478 260.904582 
L 325.943491 261.299418 
L 328.902736 261.525039 
L 332.360822 261.581444 
L 333.350067 261.865232 
L 336.79969 262.034448 
L 339.758935 262.485689 
L 342.472991 262.485689 
L 348.154743 262.654905 
L 349.634365 262.5985 
L 354.563623 263.049741 
L 366.163865 263.444577 
L 368.387518 263.783008 
L 371.101574 264.008629 
L 372.826385 264.290655 
L 380.723352 264.800064 
L 382.938554 264.800064 
L 386.39664 265.420521 
L 388.865495 265.646141 
L 391.325899 265.984572 
L 392.560332 266.379408 
L 392.805521 266.887055 
L 392.069942 267.56568 
L 393.304362 268.355352 
L 393.304362 268.806593 
L 393.059173 269.145024 
L 392.069942 269.53986 
L 394.783985 269.767244 
L 398.487273 270.726131 
L 271.163637 258.687154 
L 274.621729 258.292318 
L 277.335779 258.292318 
L 280.785415 257.895719 
L 283.74466 257.670098 
L 284.979087 257.388072 
L 295.590097 257.049641 
L 302.988209 257.275262 
L 304.721478 256.993236 
L 307.680723 256.993236 
L 310.885163 256.880426 
L 314.09806 256.936831 
L 316.812104 257.106046 
L 324.700607 256.880426 
L 326.924272 257.049641 
L 329.883518 256.936831 
L 332.107183 256.71121 
L 333.096415 256.429184 
L 336.546051 256.090753 
L 338.524514 255.470296 
L 340.494527 255.301081 
L 344.375363 254.809298 
L 344.874204 254.301652 
L 345.609797 254.076031 
L 349.558273 253.286359 
L 350.302303 253.004333 
L 353.01636 252.835117 
L 354.24233 252.494924 
L 354.24233 252.494924 
" clip-path="url(#p6705ffb4bd)" style="fill: none; stroke: #000000; stroke-width: 1.5; stroke-linecap: square"/>
   </g>
   <g id="line2d_19">
    <path d="M 252.638766 258.687154 
L 253.382805 258.799964 
L 254.862428 258.687154 
L 257.576478 258.799964 
L 264.484203 258.687154 
L 268.677875 258.799964 
L 269.886938 259.110193 
L 271.121365 259.223003 
L 272.110597 259.505029 
L 272.600988 259.899865 
L 274.080611 260.012675 
L 275.315038 260.351106 
L 278.527935 260.520322 
L 272.355793 260.294701 
L 273.099829 260.689537 
L 273.345024 261.084373 
L 273.099829 261.593782 
L 273.099829 262.157834 
L 272.600988 262.834696 
L 273.099829 263.229532 
L 271.865402 263.511558 
L 271.366561 264.697829 
L 271.865402 265.261881 
L 270.87617 265.825933 
L 271.366561 266.333579 
L 271.611756 266.899393 
L 272.846183 267.237824 
L 272.355793 267.576255 
L 273.59022 268.309523 
L 273.345024 268.873574 
L 274.325806 269.495794 
L 276.059074 270.059845 
L 271.882315 258.799964 
L 273.860779 258.687154 
L 275.095206 258.96918 
L 277.06522 259.251205 
L 280.768501 259.420421 
L 282.493319 259.758852 
L 284.962173 259.871662 
L 286.686991 260.211856 
L 287.676229 260.663097 
L 288.910657 261.001528 
L 292.749221 261.472159 
L 294.727685 261.415754 
L 301.880602 261.9234 
L 303.115029 262.149021 
L 304.839847 262.149021 
L 313.480844 263.109671 
L 317.674516 263.899344 
L 318.908949 264.350585 
L 320.388572 264.745421 
L 327.786685 265.931692 
L 331.244771 265.988097 
L 334.449205 266.213718 
L 337.653652 266.213718 
L 347.275417 267.398227 
L 352.703529 267.851231 
L 354.436791 268.076851 
L 354.927182 268.302472 
L 355.671225 268.415283 
L 357.641238 268.471688 
L 362.080105 269.430575 
L 363.069337 269.712601 
L 367.017814 270.334821 
L 369.24148 270.898873 
L 371.211493 271.068088 
L 292.115097 261.621985 
L 293.349524 262.016821 
L 294.829147 262.355252 
L 295.327988 262.808256 
L 298.777624 263.541523 
L 301.736869 264.556816 
L 303.470143 265.461062 
L 308.399395 266.194329 
L 310.623061 266.41995 
L 311.747569 266.77777 
L 313.726039 267.229011 
L 317.674516 267.682016 
L 319.889718 267.682016 
L 321.868195 267.794826 
L 323.838208 268.302472 
L 327.786685 268.922929 
L 330.255539 269.37417 
L 339.877304 270.560441 
L 342.836549 270.729657 
L 343.825794 270.898873 
L 343.825794 271.180898 
L 344.070983 271.575734 
L 343.825794 271.74495 
L 342.346171 271.914165 
L 342.346171 272.196191 
L 342.836549 272.421812 
L 342.10097 272.534622 
L 342.59136 272.874816 
L 344.561374 273.269652 
L 344.561374 273.608082 
L 343.580592 273.833704 
L 344.815026 274.284945 
L 276.574829 258.405128 
L 277.55561 257.897481 
L 281.757739 257.162452 
L 283.727746 256.767615 
L 284.716984 256.316374 
L 286.196607 256.090753 
L 291.125859 255.583107 
L 294.829147 255.019056 
L 294.829147 255.019056 
" clip-path="url(#p6705ffb4bd)" style="fill: none; stroke: #000000; stroke-width: 1.5; stroke-linecap: square"/>
   </g>
   <g id="line2d_20">
    <path d="M 253.822462 259.189512 
L 260.231343 259.697159 
L 262.108347 259.989761 
L 264.086817 260.102571 
L 265.067592 260.046166 
L 266.724769 260.158976 
L 266.969964 260.328192 
L 264.999957 260.328192 
L 262.776292 260.553812 
L 262.285901 260.384597 
L 262.040712 260.610217 
L 262.776292 260.666623 
L 261.78706 260.553812 
L 260.552633 260.666623 
L 260.062242 260.948648 
L 254.388948 260.384597 
L 254.143752 260.102571 
L 252.909325 260.158976 
L 252.165285 259.933355 
L 251.674898 259.65133 
L 252.66413 259.482114 
L 251.92009 259.425709 
L 250.930858 259.200088 
L 249.696431 259.312899 
L 248.715653 259.538519 
L 246.982378 259.594924 
L 261.051474 261.174269 
L 260.806279 261.456295 
L 262.531097 261.570868 
L 263.520335 261.909299 
L 262.531097 262.022109 
L 262.776292 262.416945 
L 263.765524 262.642566 
L 264.50111 262.416945 
L 265.980732 262.473351 
L 265.735537 262.868187 
L 263.021487 261.287079 
L 263.520335 261.174269 
L 263.765524 260.835838 
L 265.735537 260.948648 
L 267.959203 260.779433 
L 269.438825 260.553812 
L 275.11212 260.441002 
L 277.82617 260.441002 
L 279.060597 260.328192 
L 278.570206 260.158976 
L 279.550987 259.594924 
L 282.019842 259.425709 
L 287.447941 258.803489 
L 287.202746 258.521464 
L 287.693137 258.295843 
L 287.693137 258.070222 
L 288.437173 259.143683 
L 292.140461 259.76414 
L 293.121236 260.046166 
L 266.30202 260.328192 
L 266.555672 260.610217 
L 265.321245 261.005054 
L 265.321245 261.456295 
L 267.046063 261.852894 
L 267.046063 262.24773 
L 269.016076 263.037402 
L 269.016076 263.657859 
L 266.969964 264.223673 
L 266.234385 264.73132 
L 265.490342 265.013346 
L 265.245146 265.464587 
L 264.255915 265.746613 
L 261.29667 265.690208 
L 258.58262 265.915828 
L 255.86857 266.649095 
L 255.378179 266.989289 
L 255.623375 267.21491 
L 252.909325 267.620322 
L 252.165285 267.845942 
L 251.92009 268.071564 
L 250.195275 268.353589 
L 248.470457 268.862998 
L 246.0016 269.257835 
L 243.042355 270.103912 
L 239.339073 270.329532 
L 238.840229 270.611559 
L 234.401361 270.949989 
L 234.401361 271.120968 
L 235.880984 271.459398 
L 237.115411 272.305476 
L 238.104643 272.587502 
L 238.595034 273.038744 
L 238.104643 273.320769 
L 237.360606 273.151554 
L 238.104643 272.869528 
L 240.5735 272.925933 
L 241.309083 272.587502 
L 241.063888 272.305476 
L 256.61261 267.733132 
L 257.348193 268.184374 
L 256.358958 268.693783 
L 257.102997 269.145024 
L 256.61261 269.483455 
L 255.86857 269.765481 
L 256.113765 270.385938 
L 255.378179 270.667964 
L 254.879335 271.006394 
L 255.86857 271.459398 
L 256.113765 271.91064 
L 257.102997 272.531097 
L 258.827815 273.207959 
L 258.827815 273.886583 
L 257.593388 274.337824 
L 257.83858 274.845472 
L 254.879335 275.691548 
L 255.12453 276.370174 
L 256.61261 277.159846 
L 255.378179 277.498276 
L 255.623375 278.062329 
L 253.15452 278.457165 
L 253.399713 279.079384 
L 253.898557 279.474221 
L 253.644908 279.756246 
L 253.644908 279.925462 
L 252.909325 280.658728 
L 252.909325 281.166376 
L 251.92009 281.504806 
L 249.95008 281.629955 
L 248.715653 282.194008 
L 248.960845 282.588843 
L 248.470457 283.775114 
L 247.971613 284.226356 
L 247.971613 284.677597 
L 248.216808 285.298055 
L 248.960845 285.523675 
L 249.20604 285.918509 
L 248.216808 286.540731 
L 248.715653 287.048376 
L 247.481222 287.330403 
L 247.481222 287.668834 
L 248.216808 288.063671 
L 247.481222 288.402101 
L 247.23603 288.742294 
L 247.726418 289.701182 
L 248.470457 290.096019 
L 248.470457 290.54726 
L 249.20604 290.772881 
L 270.495698 263.99629 
L 271.983771 264.280079 
L 272.228967 264.73132 
L 272.964553 265.351777 
L 276.177443 266.028639 
L 276.91303 266.47988 
L 277.657066 266.59269 
L 276.591742 267.1021 
L 277.335779 267.384125 
L 280.049829 268.004582 
L 281.529451 268.737849 
L 283.009074 269.076281 
L 286.213514 269.245496 
L 291.151229 269.980526 
L 293.374888 270.713793 
L 297.069719 271.052224 
L 300.028964 271.898301 
L 302.497819 272.238495 
L 306.945137 272.576926 
L 311.384004 273.705029 
L 312.373242 273.874245 
L 312.618438 274.04346 
L 310.639968 274.212675 
L 307.680723 274.834896 
L 306.2011 275.398947 
L 305.710709 275.906593 
L 305.710709 276.30143 
L 304.721478 276.583456 
L 304.721478 277.373127 
L 304.966673 277.713321 
L 306.691491 277.10344 
L 287.447941 269.58569 
L 287.693137 269.58569 
L 292.385656 270.826603 
L 292.385656 271.221439 
L 293.374888 271.841896 
L 295.590097 272.238495 
L 297.069719 272.633331 
L 299.048183 273.366599 
L 300.028964 273.874245 
L 299.783769 274.269081 
L 300.773001 274.607513 
L 302.99666 275.229732 
L 304.231087 275.522333 
L 306.945137 275.691548 
L 308.669955 275.91717 
L 309.160345 276.255601 
L 312.11959 276.426579 
L 311.6292 276.821415 
L 313.599213 277.667493 
L 315.332481 277.780303 
L 316.313263 278.005924 
L 317.801335 278.231544 
L 318.536928 278.51357 
L 320.261739 278.73919 
L 324.210216 278.908405 
L 280.125927 266.47988 
L 282.341129 266.649095 
L 283.820751 266.989289 
L 290.72848 267.609746 
L 292.706943 267.948177 
L 295.175798 268.230203 
L 297.145811 268.343014 
L 297.636202 268.681444 
L 301.094288 268.737849 
L 300.849093 268.794254 
L 300.849093 268.96347 
L 301.339483 269.019875 
L 302.08352 269.301901 
L 303.317953 269.189091 
L 304.476282 269.358306 
L 309.904382 269.867715 
L 313.108822 270.318957 
L 313.852865 270.657388 
L 314.588451 270.770198 
L 315.577683 270.600982 
L 317.801335 270.488172 
L 323.719826 270.657388 
L 261.719419 260.03559 
L 264.179823 260.091995 
L 266.403482 259.92278 
L 268.872336 260.486831 
L 269.607922 260.430426 
L 271.087545 261.050883 
L 273.066008 261.503887 
L 274.545631 262.011533 
L 274.790826 262.462775 
L 276.769296 263.264786 
L 277.259687 263.772432 
L 278.003723 264.110863 
L 277.504876 264.674915 
L 277.750071 265.069751 
L 277.014492 265.409945 
L 277.504876 265.748376 
L 278.73931 266.256022 
L 279.229694 266.650858 
L 280.218932 266.989289 
L 279.973737 267.271315 
L 279.229694 267.553341 
L 279.229694 267.891772 
L 280.218932 268.231966 
L 281.943744 268.344776 
L 281.943744 268.175561 
L 280.962969 268.288371 
L 281.453359 268.457586 
L 280.464121 268.739612 
L 280.717773 269.247258 
L 281.208164 269.867715 
L 281.943744 270.262552 
L 282.442591 270.771961 
L 282.197396 271.166797 
L 283.178177 271.730848 
L 284.911445 272.238495 
L 285.647032 272.746142 
L 286.391068 273.084572 
L 288.115886 273.660963 
L 288.606277 274.055799 
L 291.819167 274.676256 
L 294.533224 276.144552 
L 296.748426 276.934225 
L 298.228048 277.72566 
L 297.982853 278.402522 
L 298.228048 279.417816 
L 298.228048 280.773302 
L 299.21728 281.111732 
L 296.748426 282.127026 
L 271.341197 260.204805 
L 274.545631 259.979185 
L 278.984498 258.794676 
L 280.717773 258.625461 
L 281.943744 258.285267 
L 285.156641 257.890431 
L 288.115886 257.66481 
L 289.350313 257.269974 
L 298.4817 255.576057 
L 299.707671 255.576057 
L 301.931336 255.406841 
L 303.656148 255.06841 
L 306.125008 255.06841 
L 307.849826 254.729979 
L 309.084253 254.786384 
L 310.318681 254.673573 
L 320.4393 254.786384 
L 327.10182 254.729979 
L 330.551456 254.673573 
L 333.510701 254.504358 
L 347.080956 254.729979 
L 350.048664 255.06841 
L 351.274634 255.519651 
L 350.539042 255.972655 
L 299.21728 255.124815 
L 301.19575 254.786384 
L 303.410959 253.771091 
L 305.879813 253.54547 
L 310.318681 252.754035 
L 313.03273 252.47201 
L 318.959677 251.456716 
L 321.420081 251.343906 
L 323.888936 251.005475 
L 325.867399 250.61064 
L 328.082601 250.383256 
L 330.551456 250.383256 
L 333.510701 249.988419 
L 335.734366 249.819204 
L 335.734366 249.819204 
" clip-path="url(#p6705ffb4bd)" style="fill: none; stroke: #000000; stroke-width: 1.5; stroke-linecap: square"/>
   </g>
   <g id="line2d_21">
    <path d="M 241.807928 259.594924 
L 241.807928 259.76414 
L 242.298318 260.158976 
L 243.28755 260.215381 
L 244.521977 260.441002 
L 245.257563 260.666623 
L 246.246795 261.005054 
L 246.982378 261.514463 
L 247.23603 261.852894 
L 246.737186 262.191325 
L 248.470457 262.473351 
L 247.726418 263.037402 
L 248.470457 263.319428 
L 248.960845 263.714264 
L 249.95008 264.1091 
L 250.930858 264.280079 
L 252.66413 264.449294 
L 252.165285 264.84413 
L 253.644908 265.126156 
L 254.388948 265.408182 
L 255.12453 265.577397 
L 255.12453 265.803018 
L 254.388948 266.254259 
L 253.644908 266.649095 
L 253.15452 267.32772 
L 253.898557 267.891772 
L 254.634143 268.286608 
L 253.898557 268.737849 
L 252.410481 268.96347 
L 250.440467 269.189091 
L 249.696431 269.414711 
L 249.20604 269.81131 
L 249.696431 269.867715 
L 248.960845 270.093336 
L 247.726418 270.657388 
L 246.737186 271.052224 
L 246.737186 271.277844 
L 246.246795 271.503465 
L 246.982378 271.729086 
L 248.216808 271.954707 
L 247.971613 272.125685 
L 246.982378 272.40771 
L 245.257563 272.689737 
L 243.777941 272.971762 
L 243.042355 273.253788 
L 242.298318 273.761434 
L 242.298318 274.04346 
L 241.554279 274.607513 
L 242.54351 275.116922 
L 243.28755 275.691548 
L 244.023133 276.086385 
L 244.023133 276.539389 
L 244.767173 276.934225 
L 246.491991 277.272656 
L 246.737186 277.780303 
L 247.726418 278.062329 
L 246.982378 278.400759 
L 247.971613 278.795595 
L 247.481222 279.361409 
L 247.971613 279.756246 
L 247.971613 280.151082 
L 249.451236 280.207487 
L 250.685663 280.320298 
L 251.184507 280.771539 
L 250.685663 270.262552 
L 251.429702 270.600982 
L 252.66413 270.826603 
L 253.644908 271.277844 
L 254.143752 271.559871 
L 254.634143 271.898301 
L 254.143752 272.067517 
L 253.399713 272.125685 
L 251.92009 272.351305 
L 250.685663 272.633331 
L 249.696431 272.689737 
L 248.960845 272.802547 
L 247.481222 273.084572 
L 245.502756 273.253788 
L 244.023133 273.592219 
" clip-path="url(#p6705ffb4bd)" style="fill: none; stroke: #000000; stroke-width: 1.5; stroke-linecap: square"/>
   </g>
   <g id="line2d_22">
    <path d="M 238.180738 259.693633 
L 230.782627 260.144875 
L 229.303004 260.485068 
L 227.755742 260.229483 
L 225.041691 260.058504 
L 223.553613 259.776478 
L 222.572835 259.438048 
L 220.594368 259.325237 
L 218.624357 258.59197 
L 215.910306 258.253539 
L 214.177034 257.927447 
L 211.217789 257.871042 
L 209.239323 257.701826 
L 208.258544 257.476205 
L 202.086405 256.68477 
L 202.331599 256.45915 
L 202.331599 256.177124 
L 201.84121 256.233529 
L 201.596015 256.45915 
L 200.851977 256.45915 
L 198.38312 256.289934 
L 198.38312 256.064313 
L 197.402342 256.120719 
L 196.903498 256.289934 
L 195.914265 256.177124 
L 195.423875 255.951503 
L 194.933486 256.233529 
L 193.699058 256.120719 
L 193.699058 255.782288 
L 192.219436 255.838693 
L 191.475398 255.838693 
L 191.230202 255.669477 
L 190.240969 255.613072 
L 188.761346 255.725883 
L 187.03653 255.725883 
L 186.791335 255.556667 
L 186.047296 255.725883 
L 184.812868 255.556667 
L 182.098818 255.725883 
L 181.608429 255.951503 
L 214.921073 257.745892 
L 212.452217 257.292888 
L 208.503739 257.292888 
L 204.064871 256.728837 
L 202.830443 256.503216 
L 201.350821 256.672432 
L 196.666758 256.390406 
L 188.989631 255.657139 
L 187.510009 255.375113 
L 182.825947 254.696488 
L 182.081908 254.358058 
L 180.357091 254.245247 
L 178.877467 253.963221 
L 171.809098 253.242292 
L 169.593893 253.016672 
L 166.634648 253.073077 
L 166.380999 252.734646 
L 165.645416 252.45262 
L 162.931363 252.057784 
L 162.931363 251.71759 
L 161.942131 251.548375 
L 159.972118 251.435564 
L 160.707704 251.266349 
L 159.473274 251.209944 
L 157.748459 251.322754 
L 152.565552 250.927918 
L 151.085929 251.097134 
L 150.595539 251.322754 
L 149.606307 251.322754 
L 149.361112 251.209944 
L 145.65783 250.815108 
L 142.45339 250.758702 
L 141.218962 250.871513 
L 138.504913 250.645892 
L 136.281247 250.476677 
L 135.300472 250.589487 
L 133.812393 250.363867 
L 131.351995 250.138246 
L 129.618721 249.404978 
L 230.038587 260.767094 
L 229.303004 261.16193 
L 227.814927 261.443956 
L 227.003249 261.777099 
L 225.76882 261.88991 
L 226.022469 262.11553 
L 226.758053 262.341151 
L 223.308419 262.341151 
L 220.095525 262.341151 
L 219.605135 262.510366 
L 216.891085 262.566772 
L 214.177034 262.848797 
L 213.93184 262.623177 
L 213.187801 262.961608 
L 209.983361 262.453961 
L 209.484517 262.00272 
L 208.748933 261.777099 
L 208.748933 261.551479 
L 206.770467 261.324095 
L 206.034883 261.042069 
L 207.269311 260.816449 
L 206.034883 260.816449 
L 205.544494 261.042069 
L 204.55526 260.872854 
L 203.320832 260.139587 
L 203.566027 260.083182 
L 205.290844 261.551479 
L 204.55526 261.720694 
L 203.075638 261.664289 
L 228.237676 262.397556 
L 228.73652 262.566772 
L 228.237676 262.905203 
L 229.472103 262.679582 
L 231.196921 262.623177 
L 231.695765 262.792392 
L 233.175388 263.018013 
L 233.910971 262.792392 
L 232.431348 262.905203 
L 232.676543 263.074418 
L 233.665775 262.961608 
L 232.930192 263.130823 
L 234.16462 263.300039 
L 234.65501 263.074418 
L 235.889437 263.187228 
L 235.145398 263.412849 
L 236.62502 263.300039 
L 235.644242 263.187228 
L 235.145398 262.735987 
L 227.079342 261.951603 
L 226.335304 262.346439 
L 226.741143 262.862899 
L 226.741143 263.765381 
L 227.730376 264.047407 
L 228.474416 264.385838 
L 227.975572 265.0627 
L 225.26152 266.315953 
L 224.027093 266.654384 
L 223.291509 267.105625 
L 222.302275 267.556866 
L 219.833419 268.235491 
L 219.833419 268.640903 
L 216.874175 269.14855 
L 216.628981 269.432338 
L 215.639747 269.714364 
L 212.925696 270.1092 
L 211.446074 270.222011 
L 208.486829 270.842467 
L 207.252401 270.955278 
L 206.263167 271.180898 
L 202.568339 271.63214 
L 202.314689 271.97057 
L 202.813533 272.536385 
L 203.058728 273.044031 
L 202.568339 273.438867 
L 202.813533 273.890109 
L 204.53835 274.34135 
L 205.02874 274.737949 
L 206.263167 275.019975 
L 206.263167 275.245595 
L 206.508362 275.640432 
L 206.508362 276.260888 
L 206.263167 276.768535 
L 206.017973 276.93775 
L 206.263167 277.44716 
L 207.497595 277.672781 
L 208.241634 277.55997 
L 229.209999 265.175511 
L 229.10854 265.441673 
L 228.863345 265.723698 
L 228.119307 266.062129 
L 228.863345 266.402323 
L 228.863345 266.627944 
L 228.119307 267.13559 
L 223.680439 268.376504 
L 223.19005 269.224344 
L 221.456777 269.39356 
L 220.475999 269.844801 
L 219.241571 270.183232 
L 217.761948 270.408852 
L 216.028677 270.972904 
L 228.964805 265.457536 
L 228.220766 265.741325 
L 228.964805 266.192566 
L 230.444428 266.643808 
L 231.188466 267.038644 
L 231.678855 267.715506 
L 231.577396 267.925262 
L 230.833356 268.207289 
L 230.833356 269.055128 
L 231.078552 269.50637 
L 232.312979 270.239637 
L 231.577396 270.521663 
L 230.833356 270.634473 
L 231.332201 270.860094 
L 232.566629 271.029309 
L 232.811823 271.198525 
L 232.566629 271.482313 
L 232.566629 271.764339 
L 232.811823 272.10277 
L 232.067785 272.554012 
L 230.833356 272.836037 
L 230.342967 273.174469 
L 230.342967 273.62571 
L 229.598929 273.851331 
L 229.598929 274.247929 
L 228.618151 274.529955 
L 228.618151 274.868386 
L 226.149295 275.432438 
L 225.9041 275.658059 
L 225.9041 276.052894 
L 226.639684 276.504135 
L 227.138528 277.475362 
L 228.618151 277.870198 
L 228.3645 278.548824 
L 229.353734 278.830849 
L 228.618151 279.338495 
L 230.097773 279.676926 
L 228.863345 280.128168 
L 230.342967 280.579409 
L 230.342967 281.032413 
L 231.078552 281.540059 
L 232.312979 281.991301 
L 232.811823 282.386137 
L 233.302212 283.006593 
L 234.04625 283.514241 
L 232.169244 268.16851 
L 233.158477 268.732562 
L 234.147712 269.522234 
L 237.106958 269.973475 
L 238.58658 270.719081 
L 238.341385 271.113917 
L 237.106958 272.016399 
L 237.35215 272.469404 
L 237.106958 272.807835 
L 237.597345 273.541102 
L 236.616567 274.27437 
L 236.117722 274.782016 
L 236.362918 275.178614 
L 238.096189 275.46064 
L 240.565047 276.250313 
L 241.30063 276.701554 
L 241.791017 277.2092 
L 240.810239 277.491227 
L 239.330616 277.775014 
L 239.575812 278.113446 
L 240.311395 278.395472 
L 240.565047 278.677497 
L 240.311395 278.959523 
L 238.096189 279.35436 
L 238.096189 279.57998 
L 238.58658 280.031221 
L 237.850994 280.371415 
L 237.35215 280.879061 
L 237.597345 281.464265 
L 238.58658 281.804458 
L 238.096189 282.537726 
L 237.35215 282.819752 
L 237.597345 283.383804 
L 238.831772 284.173476 
L 238.831772 284.457264 
L 238.341385 284.795695 
L 237.597345 285.021315 
L 238.58658 285.472556 
L 240.066203 285.641773 
L 245.003914 285.754583 
L 251.421246 285.472556 
L 255.361272 285.077722 
L 224.365292 262.57206 
L 222.386826 263.137874 
L 220.416814 263.4199 
L 218.193153 263.589115 
L 216.71353 264.096762 
L 215.977946 264.491598 
L 213.50909 265.112055 
L 212.519857 265.450486 
L 210.79504 266.636757 
L 209.560612 266.975188 
L 208.08099 267.257214 
L 208.571379 267.65205 
L 208.08099 267.990481 
L 206.356172 268.274269 
L 203.887316 269.233157 
L 203.887316 269.684398 
L 202.407694 270.02283 
L 200.184033 270.756097 
L 199.693643 271.219677 
L 196.235554 272.404185 
L 195.001126 272.687974 
L 194.832026 273.19562 
L 193.842793 273.590456 
L 192.608366 273.872482 
L 192.608366 274.267319 
L 191.128743 274.605749 
L 190.883548 275.340779 
L 186.44468 277.314961 
L 186.689876 277.766202 
L 186.199487 278.1628 
L 186.44468 278.557636 
L 185.945836 278.952472 
L 185.455447 279.178094 
L 185.210253 279.57293 
L 182.986591 279.967765 
L 182.496202 280.419006 
L 181.506968 280.815605 
L 181.506968 281.097632 
L 180.771385 281.436063 
L 175.343283 281.830898 
L 173.364816 282.056519 
L 168.427104 282.338546 
L 162.999005 281.718088 
L 193.521503 273.08281 
L 192.287075 273.139215 
L 191.052648 273.364836 
L 190.317064 273.646861 
L 185.134158 274.323724 
L 184.398574 274.492939 
L 184.144925 274.83137 
L 182.174913 275.113396 
L 181.929718 275.397184 
L 179.215668 276.356072 
L 177.736045 276.638098 
L 176.078869 276.807313 
L 173.855207 277.427771 
L 172.874429 277.766202 
L 172.130389 278.219205 
L 168.925948 279.347309 
L 168.427104 279.629335 
L 166.211899 279.79855 
L 161.519382 280.702795 
L 160.783799 281.266847 
L 159.304177 282.846192 
L 156.590124 283.412006 
L 156.590124 283.412006 
" clip-path="url(#p6705ffb4bd)" style="fill: none; stroke: #000000; stroke-width: 1.5; stroke-linecap: square"/>
   </g>
   <g id="line2d_23">
    <path d="M 241.444363 259.910441 
L 241.199171 260.192467 
L 240.209936 260.643708 
L 235.771068 261.829979 
L 235.525873 262.224815 
L 234.291446 262.619651 
L 234.536641 263.127298 
L 235.027029 263.636707 
L 234.536641 264.087948 
L 233.792601 264.426379 
L 234.04625 264.76481 
L 233.302212 264.934026 
L 237.99473 266.233108 
L 239.719548 266.740754 
L 240.455131 267.079185 
L 238.975509 267.417616 
L 240.70878 267.981667 
L 241.943207 268.635615 
L 241.444363 269.088619 
L 242.188403 269.42705 
L 244.158416 269.709076 
L 247.616502 269.821886 
L 247.37131 270.047507 
L 247.861697 270.442343 
L 247.861697 270.893584 
L 248.106893 271.459398 
L 250.08536 271.91064 
L 250.820942 272.249071 
L 253.2898 272.700312 
L 254.033836 273.320769 
L 255.758654 273.54639 
L 257.483472 274.055799 
L 259.707134 275.127497 
L 265.380429 276.708605 
L 264.890039 277.272656 
L 263.985355 277.572309 
L 264.729398 278.476554 
L 264.484203 278.814985 
L 265.219782 279.040605 
L 264.729398 279.435442 
L 263.74016 279.773873 
L 264.729398 280.337924 
L 264.974587 280.903738 
L 263.985355 281.185765 
L 263.74016 281.580601 
L 263.985355 281.862626 
L 264.974587 282.031842 
L 264.974587 282.313867 
L 264.239007 282.87792 
L 263.74016 283.441971 
L 261.770153 283.669354 
L 241.934754 268.263694 
L 241.934754 268.773103 
L 242.678793 269.167938 
L 242.678793 269.39356 
L 243.668025 269.788395 
L 245.147648 270.239637 
L 246.872466 271.142119 
L 248.352088 271.651529 
L 248.106893 271.820745 
L 245.883231 271.98996 
L 244.902452 272.328391 
L 244.902452 272.666822 
L 245.638038 273.005253 
L 246.62727 273.230874 
L 248.106893 273.287278 
L 248.850932 273.682115 
L 250.076906 273.964141 
L 252.300565 274.811981 
L 253.534992 275.094006 
L 253.534992 275.409523 
L 252.554214 275.860765 
L 253.780188 276.255601 
L 253.534992 276.594031 
L 252.554214 276.934225 
L 251.810178 277.554681 
L 253.044605 278.175139 
L 252.799409 278.400759 
L 254.769423 278.682785 
L 257.728668 278.908405 
L 260.197522 279.530626 
L 262.421184 279.756246 
L 231.38293 265.383505 
L 228.914074 265.723698 
L 227.679647 266.118534 
L 227.434452 266.456965 
L 225.70118 266.738991 
L 223.485973 266.964612 
L 222.006351 267.472258 
L 221.017117 268.03631 
L 219.78269 268.376504 
L 216.079406 268.884151 
L 214.844978 269.391797 
L 213.8642 269.673823 
L 211.885733 269.955848 
L 208.926488 270.745521 
L 206.702827 270.916499 
L 200.784337 271.931792 
L 191.407758 273.5129 
L 184.745228 274.133356 
L 173.643832 274.641002 
L 170.439392 274.697407 
L 164.766097 274.415382 
L 158.078203 274.36779 
L 150.426442 275.044652 
L 147.222001 275.665109 
L 144.507951 275.836086 
L 141.793902 275.77792 
L 136.610991 275.892493 
L 134.387332 276.400139 
L 203.473022 271.77139 
L 195.82126 273.634523 
L 194.341637 274.029358 
L 191.382392 274.311385 
L 188.913536 275.213867 
L 186.943525 275.608704 
L 182.995046 276.118113 
L 181.760619 276.456544 
L 176.577713 277.415432 
L 175.588478 277.641053 
L 174.6077 278.317914 
L 175.098091 278.827323 
L 175.343283 279.334971 
L 175.098091 280.068237 
L 174.6077 280.801505 
L 172.384038 282.100585 
L 172.629233 282.156991 
L 172.874429 282.382612 
L 170.659223 283.003069 
L 170.904415 283.67993 
L 171.394806 284.245745 
L 168.934405 284.922607 
L 168.680756 285.373848 
L 166.710743 285.712278 
L 166.465548 286.107116 
L 164.732276 286.332736 
L 161.282644 287.067765 
L 159.058981 287.406196 
L 156.843776 288.477895 
L 155.110501 289.15652 
L 154.374918 289.833382 
L 150.426442 290.90508 
L 149.43721 291.638348 
L 149.682399 292.383953 
L 149.43721 293.286435 
L 149.682399 294.021464 
L 147.957587 294.359895 
L 146.968349 294.754732 
L 147.957587 295.488 
L 236.464377 262.346439 
L 234.984754 262.912253 
L 234.494367 263.363495 
L 235.973989 263.814736 
L 238.442844 264.209572 
L 239.677271 264.717219 
L 242.146128 265.112055 
L 244.361334 265.677869 
L 245.840956 266.185516 
L 246.830191 267.087998 
L 247.075383 267.934075 
L 247.574228 269.063941 
L 247.075383 269.571588 
L 247.320579 269.797209 
L 248.309814 270.304855 
L 248.309814 270.757859 
L 247.819423 271.491126 
L 246.584996 272.687974 
L 246.830191 272.97 
L 246.830191 273.534051 
L 245.595761 273.872482 
L 244.606529 274.380129 
L 246.094605 274.774965 
L 246.830191 275.284374 
L 249.05385 276.356072 
L 249.05385 276.694503 
L 250.778668 276.976529 
L 251.269059 277.484176 
L 252.013095 277.993585 
L 254.236758 278.952472 
L 255.462731 279.403714 
L 256.950807 279.79855 
L 258.920821 280.205724 
L 260.155248 280.600561 
L 261.880066 280.713372 
L 263.858529 281.221018 
L 265.338152 281.785069 
L 266.318933 282.802125 
L 266.073738 283.253366 
L 267.55336 283.873824 
L 268.542592 283.986634 
L 272.98146 285.342121 
L 273.970692 285.906172 
L 275.940705 286.583034 
L 278.16437 287.090681 
L 278.409559 287.543684 
L 280.388029 288.005503 
L 282.112847 288.625958 
L 283.102079 289.135367 
L 282.358043 289.58661 
L 281.867652 290.037851 
L 282.603238 290.714712 
L 285.317288 291.22236 
L 231.036276 263.712502 
L 228.82107 264.334721 
L 227.096252 264.616747 
L 228.077031 265.067988 
L 228.077031 265.350014 
L 225.608175 267.156742 
L 224.382203 267.664388 
L 223.883358 268.454061 
L 223.147774 269.187328 
L 222.64893 269.525759 
L 220.924113 269.978763 
L 218.700452 270.768435 
L 212.781961 272.122159 
L 210.81195 272.800784 
L 209.078678 273.252025 
L 209.078678 273.534051 
L 209.822716 273.872482 
L 207.108666 275.058753 
L 205.874238 275.340779 
L 205.383849 275.79202 
L 204.885005 276.468883 
L 201.680565 277.540581 
L 199.955748 278.737428 
L 198.476126 279.359648 
L 196.00727 280.092914 
L 196.00727 280.656967 
L 196.497659 280.938992 
L 224.627397 264.898773 
L 223.638163 265.350014 
L 215.250818 266.760143 
L 214.506779 266.987526 
L 214.01639 267.438768 
L 209.323872 268.284845 
L 207.84425 269.074518 
L 206.364627 269.469354 
L 204.394616 269.696737 
L 203.160188 270.204384 
L 201.92576 270.937651 
L 199.702098 271.388892 
L 196.252464 271.727323 
L 193.293219 271.840133 
L 190.579168 272.122159 
L 190.333974 272.462353 
L 186.385496 273.872482 
L 183.91664 274.380129 
L 212.037923 267.100337 
L 210.067911 267.043932 
L 207.353861 267.213147 
L 204.149421 267.156742 
L 200.936526 266.987526 
L 198.72132 267.043932 
L 191.813597 266.647333 
L 188.845896 266.252497 
L 183.172602 266.478117 
L 183.172602 266.478117 
" clip-path="url(#p6705ffb4bd)" style="fill: none; stroke: #000000; stroke-width: 1.5; stroke-linecap: square"/>
   </g>
   <g id="line2d_24">
    <path d="M 238.197648 258.960366 
L 236.963221 259.129582 
L 235.238403 259.016771 
L 233.750327 258.903961 
L 231.289926 258.903961 
L 230.055498 259.129582 
L 228.575875 259.242392 
L 225.608175 258.847556 
L 222.894125 258.621935 
L 221.169307 258.791151 
" clip-path="url(#p6705ffb4bd)" style="fill: none; stroke: #000000; stroke-width: 1.5; stroke-linecap: square"/>
   </g>
   <g id="line2d_25">
    <path d="M 235.483599 258.56553 
L 233.505132 258.509125 
L 231.780315 258.339909 
L 229.556653 258.339909 
L 228.077031 258.227099 
L 227.341448 258.114289 
L 226.107019 257.832263 
L 223.392969 257.719453 
L 221.414503 257.606642 
L 219.689685 257.381022 
L 217.220829 257.322854 
L 214.751974 256.928018 
L 213.272351 256.815207 
L 210.5583 256.645992 
L 207.353861 256.476776 
L 204.149421 256.363966 
L 201.92576 256.251156 
L 199.211709 256.138345 
L 197.241698 256.025535 
L 195.508425 255.630699 
L 193.538414 255.517888 
L 191.559948 255.010242 
L 190.080325 254.557238 
L 187.366274 253.993186 
L 224.627397 258.283504 
L 221.668151 258.339909 
L 220.433724 258.45272 
L 218.455257 258.67834 
L 216.485246 259.129582 
L 215.005623 259.637228 
L 213.771195 260.146637 
L 212.536767 260.654284 
L 208.833483 261.274741 
L 206.119433 261.838792 
L 203.160188 262.177223 
L 198.72132 262.459249 
L 195.762075 262.912253 
L 191.314752 263.194279 
L 189.344741 263.64552 
L 186.875885 264.209572 
L 184.652224 264.886434 
L 184.161835 265.28127 
L 185.151068 265.734274 
L 184.407029 266.523947 
L 181.692979 266.931121 
L 181.692979 267.438768 
L 181.692979 268.059225 
L 181.20259 268.510466 
L 177.989694 269.243733 
L 175.774489 269.583927 
L 171.826009 270.091573 
L 169.111959 270.655625 
L 167.133492 271.106866 
L 164.174247 271.388892 
L 161.781488 271.614513 
L 160.792253 271.896539 
L 159.067435 272.122159 
L 156.85223 272.405948 
L 156.10819 272.913594 
L 155.118958 273.252025 
L 154.873763 273.590456 
L 154.13818 274.098103 
L 213.593641 259.524418 
L 212.612862 259.806444 
L 211.868823 260.146637 
L 210.389201 260.259448 
L 208.909578 260.259448 
" clip-path="url(#p6705ffb4bd)" style="fill: none; stroke: #000000; stroke-width: 1.5; stroke-linecap: square"/>
   </g>
   <g id="line2d_26">
    <path d="M 243.405919 257.173027 
L 242.96626 256.422134 
L 241.01316 255.070172 
L 240.142298 254.41975 
L 240.142298 253.718211 
L 239.922466 253.367441 
L 238.400569 252.917963 
L 237.098501 252.316895 
L 236.447466 251.615356 
L 236.227638 250.815108 
L 234.054707 249.963742 
L 234.054707 249.463147 
L 233.615047 248.96255 
L 233.834876 248.460192 
L 232.312979 247.809769 
L 231.230742 246.808579 
L 230.571252 245.807387 
L 230.140048 244.85555 
L 227.814927 241.800857 
L 227.814927 241.190976 
L 228.897165 239.787898 
L 228.694246 239.690951 
L 227.958661 239.139237 
L 227.958661 238.33899 
L 228.398321 237.688567 
L 228.829526 236.837202 
L 227.738832 236.28549 
L 227.527457 235.635068 
L 228.829526 234.933527 
L 229.260728 234.223174 
L 227.307627 233.57099 
L 227.527457 232.920568 
L 228.829526 232.219029 
L 229.700388 231.367663 
L 229.480558 230.266 
L 228.398321 229.164337 
L 228.178491 228.064438 
L 227.696557 227.995691 
L 227.738832 227.31178 
L 227.087797 226.710712 
L 222.851849 226.659596 
L 219.393761 226.659596 
L 217.804223 226.296486 
L 209.645162 225.34465 
L 206.677462 225.231839 
L 201.232451 225.34465 
L 192.583 225.288246 
L 189.894314 225.295295 
L 188.414692 225.184247 
L 187.670654 225.351699 
L 185.446992 225.464512 
L 180.247176 224.791174 
L 179.012747 224.454505 
L 176.789088 224.454505 
L 175.055813 224.287053 
L 173.821386 224.341695 
L 187.882029 225.288246 
L 182.690666 224.78236 
L 180.45855 224.671314 
L 173.787565 224.502098 
L 171.065062 224.334645 
L 164.630817 223.157186 
L 150.781549 221.810513 
L 148.312695 221.64306 
L 140.711665 221.799937 
L 125.129125 221.350458 
L 123.395851 221.406864 
L 120.673344 221.239412 
L 118.449685 220.957385 
L 115.481983 220.957385 
L 113.258324 221.070195 
L 110.290622 220.957385 
L 107.813311 221.126602 
L 101.142328 220.913319 
L 97.684235 221.026129 
L 94.462888 220.969725 
L 91.748844 221.193581 
L 90.01557 221.53025 
L 86.54902 221.810513 
L 79.379196 221.810513 
L 75.667458 221.473844 
L 207.91189 225.062623 
L 206.677462 224.838767 
L 204.4538 224.558501 
L 203.464567 224.278239 
L 204.94419 223.437451 
L 204.698995 222.876923 
L 203.954956 222.483851 
L 204.94419 222.090775 
L 205.688228 221.64306 
L 204.94419 221.137177 
L 205.443034 220.744102 
L 207.666695 220.520246 
L 208.655928 220.127171 
L 210.389201 220.016125 
L 212.367667 219.399193 
L 215.335367 219.175334 
L 215.090173 218.893308 
L 216.569795 218.16533 
L 216.324601 217.659444 
L 216.324601 217.155323 
L 217.313834 216.762253 
L 218.303067 216.651205 
L 216.42606 226.716 
L 212.122473 226.18544 
L 210.144006 226.016223 
L 207.421501 226.352892 
L 198.763595 226.352892 
L 192.583 225.792364 
L 191.340118 225.961581 
L 190.105689 225.961581 
L 182.690666 225.455698 
L 179.968161 225.624912 
L 176.501618 225.679554 
L 176.011228 225.792364 
L 174.7768 225.624912 
L 171.310254 225.735961 
L 169.331791 225.679554 
L 163.151195 225.961581 
L 161.916768 226.07263 
L 159.684649 226.016223 
L 158.695417 225.735961 
L 157.46099 225.905177 
L 156.471755 226.18544 
L 154.992132 226.409296 
L 152.514821 226.409296 
L 152.024433 226.802371 
L 151.035202 226.802371 
L 149.547122 226.633155 
L 148.803086 226.802371 
L 148.312695 227.13904 
L 143.36653 227.250086 
L 213.213166 226.883452 
L 210.245466 227.052669 
L 208.757388 227.332931 
L 208.01335 227.780649 
L 206.034883 228.117315 
L 202.576794 228.510391 
L 200.843521 228.790653 
L 200.353132 229.183726 
L 197.630627 229.687847 
L 195.897355 229.857064 
L 194.164082 230.19373 
L 192.185616 230.978117 
L 190.951188 231.314783 
L 186.503865 232.044525 
L 184.271749 232.21198 
L 183.536165 232.548646 
L 183.536165 232.885315 
L 182.546931 233.333033 
L 181.557699 233.949964 
L 180.314815 234.28663 
L 177.600766 234.566896 
L 174.13422 234.903562 
L 173.643832 235.183827 
L 171.166521 235.913569 
L 171.166521 236.41769 
L 169.43325 236.810763 
L 168.444014 237.371288 
L 164.740733 238.268485 
L 162.407155 238.367193 
L 160.927533 238.814908 
L 155.981367 239.65746 
L 155.981367 240.105176 
L 154.493288 240.217986 
L 153.258861 240.49825 
L 152.760016 240.891323 
L 151.280397 241.002372 
L 150.291159 241.227992 
L 149.056732 241.395444 
L 143.611725 241.788518 
L 141.633255 241.788518 
L 228.609696 226.261233 
L 228.398321 225.660165 
L 227.527457 225.15957 
L 227.307627 224.648399 
L 227.738832 223.94686 
L 228.398321 223.14661 
L 228.609696 222.295245 
L 229.049354 221.644822 
L 229.700388 221.144227 
L 230.782627 220.64187 
L 230.571252 220.042564 
L 230.571252 219.240552 
L 230.782627 218.389186 
L 230.782627 217.387996 
L 231.222286 216.626525 
L 234.536641 216.707611 
L 241.216078 216.48375 
L 242.704157 216.203487 
L 244.826357 216.182336 
L 247.303668 216.182336 
L 248.538096 216.35155 
L 251.750993 216.014881 
L 254.228304 216.452023 
L 255.953119 216.508429 
L 257.441198 216.956144 
L 259.664857 216.956144 
L 266.344297 217.573076 
L 267.578724 218.135365 
L 269.311999 218.359221 
L 271.535658 218.472032 
L 279.948373 220.097206 
L 283.9053 220.153612 
L 284.649343 220.377471 
L 288.107429 221.107213 
L 287.862234 221.387475 
L 287.617045 221.891596 
L 288.606277 222.228265 
L 290.58474 222.508528 
L 292.56321 223.23827 
L 294.288028 223.631342 
L 296.520144 223.855201 
L 297.949032 224.130176 
L 300.181148 224.297628 
L 303.14885 225.138418 
L 302.895204 225.531491 
L 302.404813 225.98097 
L 305.12732 226.261233 
L 305.372515 226.597902 
L 307.596174 227.158427 
L 307.105783 227.662548 
L 308.340211 228.055624 
L 310.563876 228.27948 
L 309.819833 228.39229 
L 308.830601 228.728959 
L 309.329449 229.065628 
L 311.062717 229.626153 
L 310.563876 230.017464 
L 311.062717 230.52335 
L 312.829813 230.68904 
L 312.584617 231.082113 
L 313.075001 231.531592 
L 314.808276 232.035714 
L 314.563087 232.315976 
L 314.563087 233.156766 
L 316.541551 233.549839 
L 316.541551 233.942912 
L 317.530783 234.447033 
L 319.509246 234.670892 
L 252.495029 215.845667 
L 257.931585 215.341548 
L 259.174469 215.454356 
L 261.152936 215.285142 
L 262.877754 214.781018 
L 264.365834 214.66821 
L 265.10987 214.724617 
L 268.813151 214.500755 
L 270.546426 214.500755 
L 271.535658 214.331541 
L 275.002201 213.94023 
L 275.746244 213.71461 
L 277.471062 213.434347 
L 278.959135 213.490754 
L 278.713939 213.323299 
L 278.713939 213.097678 
L 281.427995 212.706367 
L 287.862234 212.706367 
L 288.107429 212.480747 
L 289.096667 212.200484 
L 290.331094 211.976623 
L 291.320326 212.144078 
L 291.819167 211.920222 
L 291.819167 211.583553 
L 293.053601 211.416098 
L 295.27726 211.246884 
L 295.27726 210.956046 
L 297.255724 210.56297 
L 297.754571 210.282708 
L 297.999766 209.889632 
L 299.97823 209.272701 
L 300.477078 208.88139 
L 300.223425 208.3191 
L 300.477078 207.982437 
L 301.9567 207.702169 
L 301.711505 207.421906 
L 244.682624 215.923225 
L 246.407442 215.75577 
L 251.353607 215.3627 
L 252.841684 214.969624 
L 256.553425 214.521907 
L 258.531892 214.296286 
L 263.478057 214.296286 
L 265.701716 214.07243 
L 273.860779 214.128836 
L 275.594054 213.959617 
L 285.486385 214.239885 
L 290.922941 213.735761 
L 295.378722 213.848574 
L 299.335649 213.848574 
L 301.559315 213.679355 
L 302.548547 213.342686 
L 308.729139 213.399092 
L 309.718377 213.175236 
L 311.35019 212.93904 
L 316.05116 213.051848 
L 319.272508 213.108254 
L 321.250971 213.219303 
L 323.229448 213.051848 
L 324.70907 213.219303 
L 326.687534 212.93904 
L 328.665998 212.771585 
L 329.41004 212.547729 
L 332.622938 212.547729 
L 337.814298 212.37851 
L 338.80353 212.547729 
L 341.035646 212.322108 
L 345.728166 212.658777 
L 230.782627 215.674689 
L 230.351422 214.673498 
L 230.782627 213.82213 
L 231.442116 212.872058 
L 232.304524 212.219871 
L 231.653491 211.569449 
L 231.653491 210.668731 
L 232.744183 210.166372 
L 232.304524 209.105251 
L 226.039379 209.200431 
L 222.81803 209.14403 
L 218.125513 209.535341 
L 214.658968 209.480699 
L 206.990296 210.714562 
L 205.755868 210.769204 
L 204.276246 210.658156 
L 203.287012 210.769204 
L 200.310857 210.545343 
L 199.575274 210.152273 
L 197.596807 210.097631 
L 196.607574 209.817363 
L 192.895835 209.367886 
L 192.65064 209.031217 
L 202.04413 210.658156 
L 206.254713 211.218681 
L 206.990296 210.938418 
L 208.723568 211.162274 
L 207.97953 211.331494 
L 218.861096 209.872005 
L 217.136279 210.152273 
L 217.871863 210.545343 
L 216.39224 210.658156 
L 215.157812 210.601749 
L 216.147046 210.321487 
L 214.413774 210.658156 
L 232.524353 208.354356 
L 231.653491 207.652815 
L 231.653491 207.102865 
L 231.873319 206.752097 
L 231.70422 206.388989 
L 229.996313 206.226822 
L 231.230742 205.94656 
L 233.454401 205.666297 
L 233.699596 205.442441 
L 232.465169 205.442441 
L 232.710364 205.833752 
L 233.209207 206.170416 
L 233.454401 206.507085 
L 232.964013 206.787347 
L 233.454401 207.124016 
L 235.187675 207.293236 
L 238.155374 208.02121 
L 239.389801 208.470692 
L 240.624232 208.5835 
L 240.624232 208.750955 
L 238.899414 208.91841 
L 240.133841 209.14403 
L 240.624232 209.648149 
L 239.144609 209.872005 
L 239.888645 209.984818 
L 239.634997 210.321487 
L 240.133841 210.658156 
L 240.624232 210.545343 
L 241.867112 210.658156 
L 240.87788 210.938418 
L 240.624232 211.275087 
L 241.867112 211.611756 
L 242.856347 211.386136 
L 242.602698 210.994825 
L 241.368268 210.658156 
L 237.910179 210.377893 
L 231.475935 205.162179 
L 229.007079 204.769103 
L 228.263041 204.376028 
L 228.017846 204.095765 
L 226.529768 204.039359 
L 227.028613 203.871909 
L 227.519002 203.871909 
L 227.028613 203.591647 
L 226.529768 203.085758 
L 225.540535 202.805496 
L 225.540535 202.58164 
L 222.572835 202.414185 
L 222.81803 202.021115 
L 223.562068 201.684446 
L 224.796497 201.404183 
L 223.562068 201.234964 
L 224.306108 201.067514 
L 224.796497 200.674439 
L 223.807263 200.506989 
L 224.060912 200.281369 
L 224.551302 200.057507 
L 223.316874 199.720838 
L 220.349174 199.327768 
L 222.327641 199.160313 
L 223.807263 199.384169 
L 224.551302 199.664437 
L 225.540535 199.890057 
L 227.028613 200.113914 
L 227.519002 200.394176 
L 222.082446 198.823644 
L 224.796497 198.430574 
L 233.927881 206.445396 
L 234.917116 206.332583 
L 238.628854 205.155126 
L 239.119242 204.707409 
L 239.119242 204.314333 
L 238.628854 204.088713 
L 241.841748 203.471781 
L 242.086944 203.08047 
L 242.83098 202.85485 
L 243.329824 202.574587 
L 246.297526 202.014062 
L 250.25446 200.836606 
L 254.211394 199.826599 
L 255.445821 199.32248 
L 257.179092 198.818356 
L 258.168327 198.201425 
L 260.391986 197.415279 
L 261.381218 196.798348 
L 263.359688 196.294224 
L 265.355065 195.615603 
L 268.077572 194.942265 
L 276.980671 194.214285 
L 278.959135 194.101478 
L 280.692409 193.82121 
L 230.782627 205.800261 
L 230.131593 204.799065 
L 229.260728 203.898348 
L 224.483662 202.244971 
L 224.044004 201.795494 
L 226.656593 201.444721 
L 228.178491 201.083377 
L 228.178491 200.533428 
L 228.829526 198.079801 
L 228.829526 196.978137 
L 228.017846 197.082134 
L 227.028613 197.082134 
L 223.316874 196.01749 
L 219.858785 195.176697 
L 218.370707 194.783627 
L 218.370707 194.559766 
L 218.615902 194.390552 
L 218.125513 194.110289 
L 216.39224 194.053883 
L 216.147046 193.717214 
L 215.403007 193.269501 
L 214.168579 192.989234 
L 210.955685 192.763613 
L 210.45684 192.483351 
L 209.467607 192.146682 
L 208.723568 191.755371 
L 206.998751 191.418707 
L 206.009518 191.025631 
L 204.276246 190.969225 
L 201.55374 190.072031 
L 199.575274 189.735362 
L 198.831235 189.231243 
L 196.607574 188.894574 
L 194.629107 188.445093 
L 227.738832 196.676724 
L 228.178491 196.327715 
L 229.700388 195.876474 
L 229.480558 195.51513 
L 228.609696 194.764235 
L 228.178491 193.963985 
L 227.307627 192.962795 
L 226.876423 192.160786 
L 227.307627 191.358772 
L 227.307627 190.558527 
L 227.527457 189.807632 
L 228.398321 188.556141 
L 227.738832 187.653659 
L 227.527457 186.902764 
L 228.829526 186.201228 
L 228.609696 185.501451 
L 228.178491 184.840453 
L 229.480558 183.336903 
L 228.829526 182.536653 
L 228.609696 181.886231 
L 230.131593 181.135335 
L 228.178491 179.982559 
L 227.087797 178.431413 
L 226.876423 177.629404 
L 226.00556 176.718106 
L 226.00556 175.967216 
L 227.087797 175.515975 
L 227.527457 175.115847 
L 226.00556 174.715725 
L 226.436765 174.21513 
L 226.876423 173.363762 
L 226.436765 172.411925 
L 226.436765 170.608721 
L 224.695036 169.958298 
L 224.483662 169.147478 
L 224.483662 168.29611 
L 224.263832 167.494101 
L 223.612799 166.843679 
L 223.392969 166.04167 
L 222.961765 165.091593 
L 223.392969 163.087447 
L 222.741935 162.477563 
L 221.439866 161.976973 
L 220.788834 161.324786 
L 221.439866 160.774836 
L 221.220038 159.874119 
L 221.651241 159.072099 
L 222.741935 158.421677 
L 222.090901 157.219551 
L 221.220038 156.76831 
L 219.91797 155.867582 
L 219.478311 155.21716 
L 218.827276 154.515624 
L 217.305379 154.164856 
L 216.003311 153.052617 
L 215.563652 152.451543 
L 215.352278 151.700659 
L 215.352278 150.399814 
L 215.563652 149.597794 
L 214.701243 148.196487 
L 214.701243 147.195296 
L 213.83038 146.283993 
L 212.739687 145.332162 
L 212.308482 144.480793 
L 211.437619 143.629425 
L 210.99796 142.827416 
L 211.437619 142.027172 
L 212.088653 141.426098 
L 210.99796 140.775676 
L 209.044858 140.424908 
L 208.613654 139.823845 
L 209.915721 139.072949 
L 210.566755 138.411951 
L 209.476062 137.761529 
L 207.74279 137.310288 
L 206.220893 136.709214 
L 204.91037 136.007679 
L 203.177098 135.357256 
L 203.608302 134.706834 
L 204.259336 134.054647 
L 203.177098 133.504697 
L 202.526064 132.702688 
L 200.784337 131.85132 
L 200.344678 131.140973 
L 200.784337 129.938836 
L 200.133303 129.138592 
L 200.133303 128.336572 
L 198.611405 127.635037 
L 197.740542 126.935265 
L 197.960371 126.334192 
L 197.960371 125.482823 
L 197.740542 124.931109 
L 197.960371 124.231338 
L 195.78744 122.26773 
L 196.869678 121.816489 
L 197.309337 121.116718 
L 196.218644 120.415171 
L 196.218644 119.764749 
L 196.649849 118.913391 
L 194.916577 118.111382 
L 193.825883 117.060832 
L 192.743645 116.209464 
L 192.95502 115.507928 
L 193.02266 114.79757 
L 191.931966 113.946212 
L 189.54766 112.643603 
L 189.32783 112.192362 
L 187.805934 111.993181 
L 186.71524 111.54194 
L 183.240241 110.540749 
L 181.278683 109.839203 
L 179.976616 109.23814 
L 177.803684 108.68819 
L 176.061959 107.937295 
L 175.38556 107.387345 
L 173.204172 106.835631 
L 172.341763 106.386155 
L 171.682276 106.185209 
L 170.380207 106.035387 
L 169.29797 105.733968 
L 169.509345 105.233367 
L 168.638479 104.582956 
L 168.638479 103.932533 
L 168.207276 103.631114 
L 166.465548 103.431933 
L 164.512448 103.081165 
L 164.292617 102.681037 
L 164.292617 102.229796 
L 163.861414 101.829669 
L 163.210379 101.478901 
L 159.946754 100.416021 
L 160.817617 100.116367 
L 160.37796 99.765599 
L 158.85606 99.665126 
L 159.507095 99.365471 
L 160.817617 98.91423 
L 160.37796 98.514103 
L 159.075892 98.214459 
L 156.251926 97.962389 
L 156.902961 97.512912 
L 156.902961 96.961198 
L 155.600892 96.460609 
L 154.941404 95.810186 
L 154.73003 95.258472 
L 154.078995 95.008177 
L 153.639336 94.458228 
L 154.73003 94.006987 
L 159.075892 99.414831 
L 158.644686 98.614576 
L 156.902961 98.313168 
L 155.812267 97.763218 
L 156.902961 97.262617 
L 158.205026 96.511722 
L 157.334163 95.258472 
L 157.985198 94.757872 
L 157.553995 94.107449 
L 158.205026 93.707332 
L 156.683129 92.205541 
L 155.812267 91.743725 
L 157.553995 91.343597 
L 156.902961 91.193775 
L 155.381064 90.992829 
L 155.161232 90.541588 
L 154.73003 89.991639 
L 153.639336 89.69022 
L 154.941404 89.290103 
L 153.859164 88.889976 
L 152.117439 88.438735 
L 151.035202 87.888785 
L 149.513302 87.538017 
L 148.422608 86.586176 
L 146.900714 86.335881 
L 146.900714 85.785931 
L 145.378814 85.285331 
L 142.774677 84.684268 
L 142.03064 84.222451 
L 137.904609 83.621378 
L 138.335809 83.221261 
L 137.245115 82.72066 
L 137.464947 82.170711 
L 135.723222 81.819943 
L 133.338916 81.469175 
L 132.679428 81.118407 
L 133.55029 80.767639 
L 133.119084 80.21769 
L 130.726322 79.717078 
L 130.726322 79.116026 
L 130.506497 78.615415 
L 128.984597 78.365131 
L 128.333559 78.063701 
L 128.773222 77.612471 
L 128.773222 76.61127 
L 127.530338 76.151218 
L 127.099132 75.699988 
L 127.530338 75.150038 
L 124.917751 74.698786 
L 125.788613 74.348019 
L 124.266713 73.746945 
L 124.055338 73.346817 
L 123.395851 72.996049 
L 122.313613 72.846228 
L 122.964644 72.546584 
L 122.964644 72.296278 
L 121.442751 72.195816 
L 120.791713 71.695204 
L 118.830157 71.143491 
L 116.445851 70.593541 
L 115.574989 70.242773 
L 112.74257 70.031262 
L 112.091532 69.731618 
L 109.918601 69.331491 
L 107.094639 69.130545 
L 105.133082 68.83088 
L 103.399808 68.779777 
L 98.614289 68.129344 
L 86.219276 67.478932 
L 80.351514 67.02768 
L 112.531195 69.280367 
L 111.22067 68.880239 
L 109.918601 68.33029 
L 108.836364 68.028881 
L 106.654976 67.07704 
L 107.525845 66.777396 
L 109.487401 66.57645 
L 114.923958 69.780957 
L 113.833264 69.331491 
L 112.311364 68.980723 
L 110.358264 68.931363 
L 107.965501 68.730417 
L 107.965501 68.480112 
L 104.921708 68.178703 
L 102.960151 68.079984 
L 98.614289 67.378448 
L 96.001701 67.07704 
L 93.617389 66.57645 
L 92.526702 66.57645 
L 91.004802 66.326144 
L 89.702727 65.926017 
L 87.309977 65.575249 
L 86.658939 65.224481 
L 80.791177 63.472406 
L 79.269277 62.971795 
L 77.747377 62.72151 
L 76.22549 62.270259 
L 73.832727 61.820793 
L 190.883548 111.693526 
L 191.534582 111.043103 
L 190.883548 110.390917 
L 191.103378 109.840967 
L 190.883548 109.289253 
L 190.883548 108.788663 
L 191.974242 108.288063 
L 192.405446 107.738113 
L 192.185616 107.237523 
L 191.103378 106.886745 
L 190.452343 106.535977 
L 191.314752 106.13586 
L 191.534582 105.733968 
L 191.314752 105.384964 
L 190.663718 105.134659 
L 191.103378 104.33265 
L 190.452343 104.082355 
L 189.792856 103.581754 
L 189.141821 102.569989 
L 189.141821 101.968926 
L 188.710617 101.568798 
L 189.141821 101.017084 
L 187.408548 100.867262 
L 186.537686 100.567608 
L 186.317856 100.116367 
L 183.274061 99.716239 
L 184.144925 99.465944 
L 185.886651 99.314358 
L 186.098026 99.014703 
L 186.098026 98.813757 
L 189.141821 98.514103 
L 189.361651 98.214459 
L 184.795959 98.614576 
L 184.364754 98.263808 
L 182.842856 97.662745 
L 180.8813 97.763218 
L 190.883548 100.766789 
L 191.103378 100.266189 
L 191.103378 99.866072 
L 190.232514 99.365471 
L 191.534582 99.164525 
L 192.83665 99.115176 
L 193.276309 98.764408 
L 192.83665 98.514103 
L 194.578377 98.214459 
L 195.018036 97.712094 
L 196.100274 97.162144 
L 197.622172 96.91185 
L 197.622172 96.360136 
L 197.190967 95.859535 
L 199.144069 95.559891 
L 200.234763 95.149188 
L 200.885797 94.648588 
L 201.097171 94.29782 
L 200.446137 93.947052 
L 200.446137 93.696757 
L 200.234763 93.245516 
L 202.407694 92.143852 
L 202.838898 91.643252 
L 202.838898 91.294248 
L 203.278557 90.843007 
L 204.800455 90.342407 
L 204.360796 89.991639 
L 204.360796 89.741344 
L 206.102523 88.939335 
L 206.322352 88.579745 
L 206.102523 88.128504 
L 209.366147 86.676073 
L 210.668215 86.325305 
L 210.668215 85.875829 
L 211.099419 85.57441 
L 209.577522 85.52505 
L 208.495284 85.875829 
L 208.275454 86.376419 
L 207.84425 86.626713 
L 222.344551 156.560307 
L 221.904892 155.657825 
L 221.034027 154.757108 
L 220.822653 154.006212 
L 219.95179 152.403959 
L 219.73196 151.55259 
L 218.649722 150.750582 
L 218.861096 149.79874 
L 218.649722 149.148318 
L 218.649722 148.547255 
L 219.300756 147.796359 
L 218.429892 147.094823 
L 218.861096 146.444401 
L 220.171619 145.9438 
L 220.382993 145.492559 
L 219.512131 145.043083 
L 219.300756 144.542482 
L 220.822653 143.691125 
L 219.95179 142.989578 
L 220.171619 142.32858 
L 219.512131 141.477222 
L 219.95179 139.975431 
L 219.95179 139.323244 
L 220.382993 138.822654 
L 220.171619 138.272694 
L 220.171619 137.720991 
L 220.822653 137.171031 
L 221.693517 135.919545 
L 222.775756 135.318483 
L 222.995584 134.807307 
L 222.344551 134.206244 
L 221.904892 133.455348 
L 223.426788 132.804926 
L 224.077823 132.253212 
L 224.517482 131.151548 
L 225.388345 130.501126 
L 225.819549 129.75023 
L 225.819549 128.898862 
L 226.470584 128.297799 
L 230.385243 127.296609 
L 230.165413 126.785432 
L 229.514379 126.13501 
L 229.514379 125.283641 
L 230.385243 124.532757 
L 230.605071 123.931683 
L 230.385243 123.281261 
L 229.954039 122.378779 
L 229.734209 121.578534 
L 229.734209 120.827639 
L 230.385243 120.226576 
L 229.734209 119.574389 
L 229.734209 118.663085 
L 229.083174 117.862841 
L 228.21231 117.212419 
L 228.863345 116.761178 
L 229.303004 116.209464 
L 229.083174 115.358095 
L 228.43214 114.408029 
L 228.643515 113.55666 
L 228.643515 112.805765 
L 227.781106 112.104229 
L 229.514379 110.891517 
L 229.734209 110.341568 
L 226.690414 109.740494 
L 226.039379 109.340377 
L 226.039379 108.94025 
L 224.948687 108.538358 
L 222.555926 107.988408 
L 222.555926 107.63764 
L 222.344551 107.387345 
L 222.995584 107.085926 
L 222.555926 106.936104 
L 222.344551 106.685809 
L 222.344551 105.584146 
L 221.693517 105.284491 
L 222.124721 104.933724 
L 221.473687 104.533596 
L 221.693517 104.131704 
L 220.382993 103.772125 
L 219.512131 103.371997 
L 219.512131 102.820294 
L 220.382993 102.52064 
L 220.602823 102.219221 
L 221.034027 102.069399 
L 219.300756 101.919566 
L 218.649722 101.618158 
L 219.300756 101.318503 
L 219.080926 101.068208 
L 218.429892 101.117557 
L 218.429892 100.71743 
L 217.778858 100.516494 
L 216.688165 100.416021 
L 216.256961 100.116367 
L 217.778858 99.465944 
L 217.559029 99.215649 
L 216.468335 98.965344 
L 218.210063 98.764408 
L 217.339199 98.263808 
L 216.468335 98.113986 
L 216.907995 97.91304 
L 215.817302 97.86368 
L 214.946438 97.562272 
L 214.515234 97.262617 
L 214.08403 97.112796 
L 213.8642 96.811377 
L 212.773507 96.762017 
L 211.691268 96.91185 
L 211.040234 97.211504 
L 212.562132 97.262617 
L 231.002457 109.823345 
L 231.653491 109.222271 
L 231.873319 108.672322 
L 232.744183 107.970786 
L 233.826422 107.620018 
L 235.348319 106.569468 
L 235.568147 105.767459 
L 234.917116 105.117036 
L 235.136944 104.565323 
L 235.999353 103.765078 
L 235.568147 102.712764 
L 236.870216 101.812046 
L 237.090047 101.161624 
L 236.658841 100.408964 
L 236.692662 98.824333 
L 237.563524 98.122797 
L 237.343696 97.823143 
L 236.472834 97.521724 
L 235.170765 96.871312 
L 234.519731 96.270238 
L 236.692662 95.318397 
L 236.261459 94.967629 
L 237.563524 94.518152 
L 238.214559 93.917089 
L 239.956287 93.266667 
L 240.827149 92.815426 
L 241.689558 92.013406 
L 243.651115 91.664403 
L 245.824046 90.601524 
L 246.255252 90.00045 
L 247.777149 89.200206 
L 249.95008 88.800078 
L 249.087671 88.299488 
L 248.867843 87.94871 
L 249.738705 87.647301 
L 251.471977 87.44812 
L 252.131465 86.996879 
L 253.433533 86.646111 
L 255.606464 86.395805 
L 256.257499 86.096161 
L 256.03767 85.745383 
L 256.03767 85.443975 
L 257.559567 84.943374 
L 258.870089 84.693079 
L 258.870089 84.442784 
L 261.913886 83.892835 
L 264.95768 83.330545 
L 264.086817 82.930418 
L 266.039917 82.279995 
L 266.91078 82.079049 
L 269.954573 81.779394 
L 270.174405 81.428637 
L 271.045267 81.077869 
L 272.567167 80.22649 
L 273.869236 80.277614 
L 273.869236 80.977386 
L 275.610961 80.778204 
L 277.344236 80.827564 
L 279.085961 80.677742 
L 279.525624 80.427436 
L 279.736998 80.126028 
L 265.388886 81.929227 
L 264.737849 81.728281 
L 265.608711 81.227691 
L 264.737849 80.52792 
L 265.169055 80.17713 
L 263.647155 79.475595 
L 262.345086 79.426256 
L 259.952327 79.024365 
L 260.823192 78.825183 
L 266.91078 80.027309 
L 268.43268 79.426256 
L 270.174405 79.325773 
L 217.271559 145.487277 
L 216.400696 144.434963 
L 214.658968 143.083004 
L 213.3569 140.879677 
L 212.266208 140.278604 
L 210.532935 138.626991 
L 209.011038 137.824982 
L 208.351549 137.225673 
L 208.571379 136.62461 
L 207.920345 135.672769 
L 208.123264 134.958893 
L 207.472231 134.158648 
L 207.260856 133.557575 
L 207.69206 132.556384 
L 207.260856 132.105143 
L 206.389992 131.653903 
L 206.389992 130.552239 
L 205.738958 129.901817 
L 204.648265 129.350103 
L 205.519129 128.750804 
L 204.648265 127.598017 
L 204.428435 126.697299 
L 204.648265 125.985188 
L 205.519129 125.334766 
L 205.079469 124.53451 
L 205.299299 123.683153 
L 204.428435 123.131439 
L 203.997231 122.481016 
L 205.299299 121.77948 
L 204.868095 121.178407 
L 203.557572 120.378162 
L 203.126368 119.475681 
L 203.574482 118.023249 
L 202.923448 117.272354 
L 201.181721 116.67128 
L 200.961891 116.019093 
L 201.181721 115.469144 
L 199.00879 114.36748 
L 199.659823 113.815766 
L 199.879653 113.165344 
L 199.752828 112.689434 
L 197.791271 111.436174 
L 197.360067 110.836875 
L 197.791271 110.285161 
L 197.140238 109.634739 
L 196.049545 109.134138 
L 196.489204 108.682897 
L 196.709033 107.932012 
L 196.489204 107.480761 
L 195.97345 107.145862 
L 193.918888 106.46723 
L 192.616821 105.815054 
L 191.314752 105.46604 
L 189.353196 105.064159 
L 188.702162 104.514209 
L 187.400095 104.062968 
L 184.356299 102.460704 
L 183.925095 102.009463 
L 183.054231 101.810282 
L 181.963538 101.709809 
L 181.320959 101.010037 
L 177.62613 99.407773 
L 176.324061 98.85606 
L 176.104233 98.254997 
L 175.453199 97.955342 
L 174.15113 97.555215 
L 172.409405 96.453551 
L 172.189573 95.901848 
L 172.189573 95.351888 
L 171.327165 94.900647 
L 170.667677 94.250224 
L 170.456302 93.749634 
L 169.14578 93.249034 
L 168.063543 92.14737 
L 165.408674 90.768968 
L 164.317984 90.367087 
L 161.925221 89.91761 
L 163.22729 88.914655 
L 162.576255 88.414055 
L 161.494018 88.063287 
L 160.403324 87.312391 
L 159.972118 86.762442 
L 159.101256 86.210728 
L 158.450221 85.560305 
L 158.010562 84.959243 
L 156.928325 84.30882 
L 156.488665 83.757106 
L 154.966768 83.057324 
L 154.966768 82.655443 
L 154.755393 82.306439 
L 153.664699 81.855198 
L 153.664699 81.354598 
L 153.233497 81.104292 
L 151.922971 80.753524 
L 151.711597 80.252934 
L 149.538665 79.401577 
L 148.447971 78.751143 
L 148.016772 78.199429 
L 147.79694 77.598356 
L 147.357278 77.14889 
L 146.494872 76.947944 
L 145.404178 76.447354 
L 144.753147 75.946743 
L 143.011415 75.395029 
L 141.058316 74.233441 
L 138.445728 73.232262 
L 136.052966 72.28042 
L 135.182103 71.830933 
L 133.009172 71.028935 
L 132.577966 70.378501 
L 131.275897 69.726325 
L 129.314341 68.074712 
L 129.094509 67.674585 
L 128.232104 67.272693 
L 127.14141 67.073511 
L 126.710203 66.673384 
L 125.61951 66.271513 
L 124.097616 65.220952 
L 122.558809 64.191564 
L 119.954672 63.089901 
L 117.342078 61.887775 
L 114.518115 61.387164 
L 113.647253 60.886574 
L 113.647253 60.58693 
L 112.996215 60.385984 
L 111.905528 60.186802 
L 110.603459 59.684448 
L 110.383628 59.284321 
L 110.383628 58.933553 
L 110.172253 58.633887 
L 109.301391 58.283119 
L 109.73259 57.882992 
L 110.603459 57.431762 
L 109.952422 57.080994 
L 109.521216 56.531044 
L 108.861728 56.030433 
L 107.559659 55.529843 
L 106.908628 54.928769 
L 99.950172 54.026288 
L 87.555166 53.576822 
L 142.935324 74.376227 
L 141.624798 73.875616 
L 141.413423 73.625332 
L 142.284286 73.47551 
L 142.284286 73.075382 
L 143.146698 72.675255 
L 147.712392 71.672289 
L 148.583254 71.222823 
L 148.37188 70.972518 
L 149.454117 70.820931 
L 148.37188 70.221622 
L 148.37188 69.920214 
L 149.022911 69.62057 
L 150.105148 69.419624 
L 150.544811 69.169318 
L 150.756185 68.718088 
L 151.846879 68.518907 
L 151.627048 68.067655 
L 151.846879 67.817349 
L 150.756185 67.616425 
L 151.415673 67.417243 
L 150.756185 67.015351 
L 151.846879 66.514761 
L 151.627048 66.114634 
L 150.976017 65.663382 
L 152.278082 64.863127 
L 151.195842 64.612843 
L 151.229663 63.814352 
L 153.622425 63.512944 
L 152.971391 62.86251 
L 152.311903 62.612226 
L 151.229663 62.762048 
L 150.578632 63.012332 
L 155.144322 63.414224 
L 160.141219 63.213278 
L 160.36105 63.414224 
L 161.882947 63.463584 
L 162.533981 63.262638 
L 153.926805 80.698893 
L 154.57784 80.348125 
L 155.448702 80.097819 
L 156.530939 79.947997 
L 156.970599 79.648332 
L 158.052839 79.396284 
L 160.014396 78.495566 
L 160.66543 77.744671 
L 162.838361 76.942651 
L 163.489392 76.593647 
L 163.058189 76.191756 
L 164.360258 75.892112 
L 164.360258 75.590703 
L 165.011292 74.088912 
L 165.882155 73.789247 
L 166.533189 73.438479 
L 166.533189 73.137071 
L 167.835258 72.937889 
L 169.357154 72.537762 
L 170.016642 72.086532 
L 170.228017 71.686404 
L 171.09888 71.335636 
L 171.073516 70.953131 
L 173.026619 70.452541 
L 173.026619 70.202235 
L 174.548515 69.151696 
L 175.419378 68.550622 
L 176.070412 67.949549 
L 178.023515 66.497117 
L 181.287139 64.745042 
L 182.158003 64.494737 
L 182.809037 63.943023 
L 183.248697 63.241487 
L 184.770593 62.231485 
L 185.421628 61.780234 
L 187.374729 60.879516 
L 188.245593 60.477646 
L 188.025763 60.327802 
L 189.32783 59.977034 
L 189.32783 59.527569 
L 190.198694 59.076317 
L 190.418524 58.475243 
L 190.418524 58.124476 
L 191.940421 57.724348 
L 191.509217 57.273118 
L 192.811285 56.823631 
L 196.286284 56.122095 
L 196.937318 55.670865 
L 196.725943 55.020431 
L 197.157147 53.869408 
L 195.204046 53.568 
L 196.869678 106.490146 
L 197.300882 105.83797 
L 198.611405 104.586474 
L 199.693643 104.135233 
L 198.82278 103.084693 
L 199.262439 101.98303 
L 199.693643 101.436598 
L 199.913473 100.936009 
L 199.482269 99.58404 
L 199.913473 99.08345 
L 199.262439 98.5335 
L 200.784337 97.731481 
L 200.133303 97.28024 
L 200.133303 96.880123 
L 200.564507 96.379522 
L 199.761283 95.078677 
L 198.019556 94.026374 
L 198.239386 93.47466 
L 198.239386 93.125656 
L 197.148692 92.875351 
L 196.717489 92.42411 
L 197.368522 91.92352 
L 198.459215 91.572741 
L 198.67059 91.1215 
L 198.239386 90.821856 
L 197.808182 89.720193 
L 197.148692 89.119119 
L 197.148692 88.518057 
L 196.286284 87.367033 
L 196.286284 86.866444 
L 195.102586 86.33941 
L 195.542245 86.037991 
L 196.844313 85.787696 
L 197.495347 85.387568 
L 203.371562 84.737146 
L 205.104834 84.285905 
L 205.544494 83.885777 
L 205.104834 83.584369 
L 205.096379 82.967437 
L 204.87655 82.51795 
L 206.398447 81.566119 
L 206.829652 81.166002 
L 211.615174 80.363983 
L 212.486037 80.113677 
L 212.054833 79.912731 
L 212.705867 79.662447 
L 214.007935 79.662447 
L 215.749661 79.112498 
L 217.922593 78.76173 
L 217.05173 78.511424 
L 215.961036 78.361602 
L 216.400696 77.95971 
L 217.922593 77.610707 
L 219.66432 77.510223 
L 221.617422 77.510223 
L 223.359149 76.607741 
L 223.570523 75.997867 
L 223.139319 75.597739 
L 224.661217 75.497277 
L 225.963284 75.046026 
L 226.614319 74.545436 
L 227.485183 74.194668 
L 227.273808 73.743416 
L 227.705012 73.242826 
L 228.795705 72.842699 
L 227.705012 72.391469 
L 225.963284 72.292749 
L 225.312252 72.141163 
L 226.183114 71.441391 
L 225.092422 71.090624 
L 225.75191 70.789215 
L 226.183114 69.888476 
L 225.963284 69.588833 
L 226.183114 69.338527 
L 226.834148 69.088243 
L 226.183114 68.936656 
L 226.834148 68.436045 
L 226.183114 67.986579 
L 227.705012 67.68515 
L 228.575875 67.385506 
L 227.485183 67.18456 
L 226.402944 67.1352 
L 225.75191 66.884916 
L 226.834148 66.784432 
L 229.226909 72.342109 
L 230.097773 71.691697 
L 230.097773 70.889678 
L 230.317602 70.389088 
L 230.968636 69.638192 
L 230.097773 68.585889 
L 230.317602 68.386707 
L 231.8395 67.935455 
L 232.490534 67.385506 
L 232.701909 66.983614 
L 232.270705 66.63461 
L 235.53433 65.682769 
L 235.53433 65.332001 
L 235.314498 65.030593 
L 237.056226 64.681589 
L 237.707261 64.279697 
L 239.009329 63.83021 
L 238.358295 63.32962 
L 237.487429 62.927728 
L 237.707261 62.57696 
L 237.707261 62.07637 
L 237.056226 61.727367 
L 236.836395 61.425937 
L 236.405192 61.175653 
L 236.185364 60.775525 
L 236.405192 60.52522 
L 237.487429 60.174452 
L 237.707261 59.774324 
L 238.578123 59.472916 
L 239.009329 63.278496 
L 239.880192 63.028212 
L 239.229158 62.677444 
L 239.880192 62.326676 
L 240.10002 61.977651 
L 239.880192 61.826065 
L 239.66036 61.526421 
L 240.10002 61.276115 
L 239.880192 60.974707 
L 239.880192 60.724401 
L 240.970886 60.574579 
L 242.272951 60.223811 
L 242.704157 59.924168 
L 242.053123 59.723222 
L 244.226054 59.02345 
L 245.967782 58.871842 
L 248.360542 58.27079 
L 249.442782 58.27079 
L 251.404339 57.821303 
L 255.099167 57.620357 
L 256.401235 57.519895 
L 257.923132 57.570997 
L 259.445029 57.821303 
L 262.928482 57.921787 
L 263.139857 58.172071 
L 265.101413 58.572198 
L 199.575274 90.603277 
L 203.050273 90.102687 
L 204.57217 89.70256 
L 204.792 89.401152 
L 205.882693 89.251319 
L 207.184761 89.251319 
L 207.615965 88.851202 
L 206.753557 88.39995 
L 207.835795 88.100307 
L 212.181658 87.39876 
L 211.319249 87.097352 
L 211.530624 86.797697 
L 213.272351 86.39757 
L 214.143214 85.696034 
L 214.363044 85.345266 
L 213.923384 84.844665 
L 213.703555 84.393424 
L 213.492181 83.443347 
L 212.621317 83.242412 
L 211.750453 82.741812 
L 211.970283 82.190098 
L 210.65976 81.740621 
L 211.319249 80.138357 
L 211.970283 79.486181 
L 212.841146 79.235875 
L 212.621317 78.685926 
L 213.272351 78.035514 
L 213.923384 77.584262 
L 214.363044 76.972624 
L 215.225452 76.322191 
L 214.794249 75.971423 
L 215.445282 74.869759 
L 216.316145 74.31981 
L 217.406839 73.86858 
L 217.838043 73.517812 
L 217.618213 73.316866 
L 219.359941 72.967862 
L 221.532872 71.815075 
L 224.145463 70.713411 
L 224.356837 70.362644 
L 224.576667 69.763334 
L 224.948687 69.252158 
L 226.030924 68.501263 
L 226.030924 68.250979 
L 227.510547 68.041211 
L 228.254586 67.760954 
L 229.489013 67.535328 
L 230.233053 67.255071 
L 229.987858 66.807348 
L 230.723442 66.357882 
L 231.222286 65.797346 
L 231.712676 65.517089 
L 231.712676 65.236832 
L 232.710364 64.563483 
L 232.456714 63.992382 
L 231.222286 63.542895 
L 231.966325 63.149825 
L 231.46748 62.813172 
L 231.712676 62.309032 
L 231.712676 61.972379 
L 232.710364 61.692101 
L 232.21152 61.411843 
L 231.966325 60.851329 
L 232.456714 60.289029 
L 233.200753 60.008772 
L 232.456714 59.672097 
L 233.699596 59.337188 
L 232.955558 58.831305 
L 232.955558 58.438234 
L 233.445947 58.103324 
L 234.688831 57.766672 
L 235.424414 57.37358 
L 236.413646 57.093323 
L 236.91249 56.58744 
L 237.65653 56.026926 
L 236.168454 55.746647 
L 217.618213 74.726995 
L 219.106291 74.333925 
L 219.841875 73.997251 
L 222.319186 73.716993 
L 226.766509 72.090039 
L 227.755742 71.642337 
L 228.744975 71.360316 
L 230.233053 71.136454 
L 229.734209 70.856176 
L 230.723442 70.632336 
L 231.712676 70.182849 
L 232.21152 69.398473 
L 231.46748 68.501263 
L 232.21152 67.940748 
L 232.21152 67.098191 
L 231.712676 66.48126 
L 231.966325 66.089954 
L 231.222286 65.75328 
L 233.200753 65.303792 
L 233.944791 64.519416 
L 234.934023 64.293791 
L 234.189987 64.013534 
L 234.688831 63.676859 
L 235.424414 63.340206 
L 235.179219 63.116345 
L 236.168454 62.331948 
L 235.678063 62.05169 
L 234.934023 61.826065 
L 235.179219 61.65862 
L 235.424414 61.321946 
L 238.645765 60.705015 
L 240.125387 60.481153 
L 241.16535 59.85895 
L 242.644973 59.85895 
L 243.143817 59.522276 
L 243.8794 59.242018 
L 243.389009 58.905344 
L 244.623439 58.625087 
L 245.122284 58.737878 
L 246.847098 58.737878 
L 248.089982 58.455857 
L 248.335178 58.56867 
L 251.302876 57.895342 
L 252.537307 57.504015 
L 254.025383 57.334807 
L 216.231596 85.926942 
L 217.466024 85.590278 
L 218.954102 85.421059 
L 220.932569 85.477466 
L 221.422958 85.310011 
L 221.668151 85.084385 
L 223.156229 85.029743 
L 223.900269 84.693079 
L 226.123929 84.467453 
L 227.603552 83.963335 
L 231.070096 83.459216 
L 233.048563 83.066146 
L 234.528184 82.616659 
L 234.874839 82.24474 
L 236.033174 82.008549 
L 238.755677 82.288806 
L 238.755677 82.121351 
L 238.755677 81.897501 
L 240.2353 81.671875 
L 241.723379 81.728281 
L 241.968574 81.617233 
L 241.968574 81.448024 
L 244.445882 81.000301 
L 245.925505 80.663627 
L 248.402816 80.38337 
L 247.903972 80.101348 
L 249.138402 79.877487 
L 250.626478 79.766438 
L 250.871674 79.540812 
L 254.084568 79.093111 
L 255.073803 79.260555 
L 256.316683 79.149507 
L 257.052269 78.923881 
L 258.540346 78.756437 
L 261.009203 78.363366 
L 262.987667 78.363366 
L 267.933832 77.970296 
L 270.901534 77.578969 
L 271.64557 77.129503 
L 273.624041 76.792829 
L 274.858468 76.792829 
L 277.335779 76.399759 
L 226.707324 227.65726 
L 224.737312 227.20602 
L 223.249235 227.093209 
L 222.758845 226.698375 
L 220.289989 225.852297 
L 218.074782 225.399292 
L 216.840355 224.891647 
L 215.360733 224.553214 
L 214.371499 224.045569 
L 214.371499 223.707138 
L 213.88111 223.312301 
L 212.393032 222.690082 
L 211.412254 222.520865 
L 209.188593 221.392763 
L 207.463775 221.110736 
L 207.218581 220.659495 
L 204.005686 220.490281 
L 230.165413 234.82953 
L 231.89023 234.998747 
L 232.879463 234.773127 
L 236.329097 234.4911 
L 240.522769 234.321886 
L 242.746432 234.321886 
L 245.705677 233.927049 
L 246.449716 233.645022 
L 250.144544 233.022802 
L 251.801721 233.077444 
L 254.262121 232.79542 
L 255.006161 232.344179 
L 256.730979 231.892936 
L 258.954641 231.667315 
L 260.434264 231.328885 
L 266.352754 230.932286 
L 268.086022 230.763072 
L 269.311999 230.368235 
L 269.81084 229.916994 
L 271.535658 228.788889 
L 270.056035 227.941049 
L 270.301231 227.715429 
L 272.026049 227.038567 
L 273.01528 226.925757 
L 273.01528 226.474516 
L 273.514128 226.079679 
L 275.974526 225.288246 
L 275.72933 224.780598 
L 276.473373 223.93452 
L 276.718562 223.652493 
L 278.198185 223.314063 
L 278.942227 222.97387 
L 279.677807 222.466223 
L 281.656277 222.127792 
L 282.882248 221.732955 
L 287.295751 221.387475 
L 288.284983 221.161855 
L 289.265764 221.274665 
L 290.999039 221.218258 
L 293.713089 220.936234 
L 295.192711 220.654207 
L 299.876774 220.25937 
L 301.610043 220.428587 
L 304.569288 220.315777 
L 306.04891 220.541397 
L 314.681456 221.218258 
L 285.376472 221.013792 
L 286.856095 220.335166 
L 289.570144 220.053139 
L 291.049767 219.601898 
L 295.74228 219.319874 
L 295.987476 218.981441 
L 297.712294 218.5302 
L 299.682307 218.248175 
L 304.620016 216.723474 
L 306.843681 216.723474 
L 309.557731 216.103014 
L 310.538506 215.70818 
L 313.007366 215.311581 
L 317.69988 214.014259 
L 321.394704 213.506617 
L 324.362413 212.942563 
L 324.852804 212.489558 
L 263.418873 230.833577 
L 261.93925 230.495147 
L 261.195214 230.156716 
L 260.950018 229.705475 
L 260.205979 229.367044 
L 258.980005 229.254234 
L 257.246734 228.972207 
L 258.980005 228.067961 
L 259.225201 227.72953 
L 258.726356 227.221883 
L 258.481161 226.714238 
L 258.726356 226.206591 
L 258.481161 225.809992 
L 258.481161 225.584372 
L 257.745578 225.133131 
L 258.726356 224.56908 
L 258.980005 224.399863 
L 257.491926 223.779405 
L 257.745578 223.382806 
L 258.726356 222.875162 
L 260.459628 222.423921 
L 259.470393 222.198298 
L 259.960783 222.085488 
L 259.715588 221.803463 
L 259.715588 221.465033 
L 260.704823 221.239412 
L 263.173677 220.900979 
L 248.614191 233.994031 
L 251.083048 233.937624 
L 253.551903 234.108603 
L 256.012303 234.165006 
L 257.745578 233.88122 
L 263.173677 233.599193 
L 266.378118 233.824814 
L 268.348131 234.165006 
L 269.836204 234.277819 
L 274.520267 233.824814 
L 276.743932 233.937624 
L 278.713939 234.165006 
L 279.948373 233.88122 
L 282.907618 233.655597 
L 286.120509 233.655597 
L 289.079754 233.542787 
L 291.049767 233.88122 
L 293.518621 233.486383 
L 296.723062 233.486383 
L 299.690764 233.599193 
L 303.884436 233.429977 
L 307.334072 233.373573 
L 309.058883 233.542787 
L 310.538506 233.204356 
L 312.516976 233.035142 
L 315.721416 233.035142 
L 317.243316 232.781319 
L 318.477737 232.38472 
L 325.14027 232.159099 
L 326.36624 231.707858 
L 327.237103 231.193162 
L 328.217884 230.798324 
L 343.766603 229.442837 
L 346.725848 229.499244 
L 348.20547 229.217217 
L 348.450659 228.878786 
L 236.193817 234.240802 
L 237.174596 233.902371 
L 237.419791 233.507534 
L 239.643453 233.281914 
L 237.918635 233.394724 
L 238.409023 233.22551 
L 235.940169 233.110935 
L 237.419791 232.546884 
L 236.439013 232.434074 
L 237.174596 231.982833 
L 235.940169 232.039237 
L 233.970155 232.321264 
L 233.479768 232.659695 
L 231.99169 232.998125 
L 236.9294 231.644403 
L 236.439013 231.475186 
L 235.204586 231.418782 
L 234.460546 231.249565 
L 233.479768 231.475186 
L 234.215351 233.902371 
L 231.256106 233.676751 
L 226.563589 232.659695 
L 225.828005 232.377668 
L 226.470584 231.991647 
L 224.010183 231.59681 
L 225.489805 230.863542 
L 224.255378 230.466943 
L 223.02095 230.241323 
L 223.511339 229.282435 
L 223.02095 228.944004 
L 223.02095 228.492763 
L 223.511339 228.041522 
L 223.02095 227.362896 
L 222.276911 226.629629 
L 220.797289 226.121984 
L 219.56286 225.896363 
L 221.042483 225.557933 
L 222.031716 225.104927 
L 222.031716 224.653687 
L 221.042483 224.258849 
L 221.296133 223.807609 
L 221.042483 223.356368 
L 221.541327 222.96153 
L 222.53056 222.677742 
L 221.541327 222.226501 
L 221.786522 221.66245 
L 221.296133 221.154802 
L 217.102459 220.534348 
L 216.113226 220.13951 
L 215.868031 219.630101 
L 216.358421 219.17886 
L 215.868031 218.501999 
L 209.941086 217.994352 
L 208.706659 218.107162 
L 224.255378 232.455225 
L 222.53056 232.342415 
L 221.042483 232.455225 
L 220.061704 232.680846 
L 217.347654 232.962873 
L 212.409942 233.132089 
L 209.941086 233.47052 
L 208.216269 233.58333 
L 206.246258 233.526924 
L 205.502219 233.69614 
L 204.512985 233.752544 
L 203.777402 233.639734 
L 203.777402 233.35771 
L 200.564507 233.019276 
L 198.839689 232.793656 
L 195.136406 232.962873 
L 194.891212 232.737252 
L 193.166395 232.455225 
L 184.035009 232.455225 
L 210.685125 232.793656 
L 209.205503 233.019276 
L 207.971075 232.962873 
L 207.72588 232.793656 
L 205.257024 232.850062 
L 204.267791 232.624442 
L 203.777402 232.342415 
L 203.033363 232.115033 
L 200.074118 232.286011 
L 200.074118 232.058626 
L 198.104106 231.945816 
L 196.12564 232.115033 
L 192.422355 232.115033 
L 198.104106 231.607385 
L 197.850457 231.268955 
L 197.114872 231.156145 
L 229.928673 239.803761 
L 236.100812 239.972977 
L 242.754885 240.76265 
L 245.967782 240.87546 
L 252.385117 241.439511 
L 255.834749 241.495916 
L 257.314372 241.21389 
L 261.262849 241.270296 
L 262.497276 241.10108 
L 266.690955 240.819055 
L 267.680186 240.480624 
L 271.628663 240.198598 
L 273.108286 239.860166 
L 277.056763 239.690951 
L 278.536385 239.521736 
L 281.49563 239.35252 
L 283.220448 239.521736 
L 285.198918 239.521736 
L 292.842226 238.673895 
L 300.493985 238.335464 
L 301.483217 238.27906 
L 302.218803 238.05344 
L 302.463998 237.771413 
L 306.911322 237.376576 
L 314.554624 236.246712 
L 318.503101 236.021091 
L 320.227925 235.682658 
L 321.715998 235.682658 
L 322.69678 235.457037 
L 324.920445 235.400634 
L 328.725189 234.993459 
L 330.948841 235.049863 
L 336.131752 234.260191 
L 337.611374 234.034571 
L 339.336186 233.58333 
L 342.303894 233.068633 
L 342.303894 232.222555 
L 342.549083 231.940528 
L 343.039474 231.658504 
L 344.028705 231.602098 
L 256.7648 241.818483 
L 267.866197 242.382536 
L 272.795449 243.172207 
L 274.528724 243.172207 
L 278.223555 243.623448 
L 279.703177 243.623448 
L 281.19125 243.454233 
L 283.406459 243.679855 
L 285.875313 243.679855 
L 292.783035 244.018285 
L 298.211141 243.905475 
L 299.690764 244.187501 
L 301.415582 244.302074 
L 304.383277 244.80972 
L 306.108095 244.80972 
L 307.097327 245.035341 
L 309.312535 244.978935 
L 312.525433 245.486583 
L 314.25025 245.768608 
L 316.473909 245.825013 
L 319.433154 245.712203 
L 321.403168 245.768608 
L 323.127979 245.937824 
L 323.872022 246.219849 
L 335.962654 246.840305 
L 336.453045 247.067689 
L 337.442277 247.236904 
L 339.911131 247.349716 
L 340.891913 247.518931 
L 342.126334 247.575336 
L 348.788867 248.534223 
L 356.68582 248.365008 
L 358.410645 248.477818 
L 360.879499 248.759845 
L 362.359122 248.70344 
L 364.092383 248.92906 
L 364.827976 249.154681 
L 367.29683 248.985465 
L 373.714161 249.7769 
L 375.684175 250.058926 
L 253.382805 241.874888 
L 254.118388 242.382536 
L 255.85166 242.777372 
L 257.331282 243.792665 
L 262.260537 244.640505 
L 264.239007 244.753315 
L 266.707862 245.825013 
L 268.92307 246.7839 
L 269.912302 246.954879 
L 270.157498 247.462526 
L 271.882315 248.252198 
L 276.084438 249.041871 
L 280.768501 249.7769 
L 282.248124 250.171736 
L 223.350693 249.900286 
L 219.655865 249.561855 
L 217.829588 249.50545 
L 217.330744 249.336235 
L 214.126305 249.054209 
L 210.921865 248.884994 
L 208.453009 248.602967 
L 205.984153 248.093558 
L 200.801247 247.585912 
L 198.332391 247.585912 
L 193.893523 246.90905 
L 187.47619 246.514213 
L 183.282516 245.950162 
L 178.598454 245.553563 
L 178.353259 245.215133 
L 176.873636 244.989511 
L 174.89517 244.933106 
L 173.170352 244.42546 
L 171.445537 244.42546 
L 170.211107 244.256244 
L 169.221875 243.861409 
L 167.497057 243.692193 
L 164.038968 243.805004 
L 159.845295 243.353761 
L 215.851122 249.27983 
L 213.382266 249.167019 
L 212.646682 248.715778 
L 211.167059 248.262775 
L 208.943398 248.375585 
L 206.728192 248.31918 
L 205.493764 247.867937 
L 204.014141 247.811532 
L 202.035675 247.585912 
L 201.300091 247.360291 
L 199.07643 247.416697 
L 194.138718 246.90905 
L 193.648329 246.570618 
L 191.923511 246.232188 
L 204.749725 248.602967 
L 204.749725 248.941399 
L 203.270103 249.223425 
L 201.79048 249.167019 
L 200.065663 249.223425 
L 198.831235 249.561855 
L 195.373146 249.674665 
L 194.637562 249.900286 
L 194.637562 249.900286 
" clip-path="url(#p6705ffb4bd)" style="fill: none; stroke: #000000; stroke-width: 1.5; stroke-linecap: square"/>
   </g>
   <g id="patch_3">
    <path d="M 57.6 307.584 
L 57.6 41.472 
" style="fill: none; stroke: #000000; stroke-width: 0.8; stroke-linejoin: miter; stroke-linecap: square"/>
   </g>
   <g id="patch_4">
    <path d="M 414.72 307.584 
L 414.72 41.472 
" style="fill: none; stroke: #000000; stroke-width: 0.8; stroke-linejoin: miter; stroke-linecap: square"/>
   </g>
   <g id="patch_5">
    <path d="M 57.6 307.584 
L 414.72 307.584 
" style="fill: none; stroke: #000000; stroke-width: 0.8; stroke-linejoin: miter; stroke-linecap: square"/>
   </g>
   <g id="patch_6">
    <path d="M 57.6 41.472 
L 414.72 41.472 
" style="fill: none; stroke: #000000; stroke-width: 0.8; stroke-linejoin: miter; stroke-linecap: square"/>
   </g>
  </g>
 </g>
 <defs>
  <clipPath id="p6705ffb4bd">
   <rect x="57.6" y="41.472" width="357.12" height="266.112"/>
  </clipPath>
 </defs>
</svg>
